<svg width="36" height="38" viewBox="0 0 36 38" fill="none" xmlns="http://www.w3.org/2000/svg">
<path d="M11.7503 3.60481C11.8609 3.71162 12.1421 4.92252 12.227 5.16877C12.5022 5.96695 12.8704 6.71858 13.2874 7.45134C13.1765 7.35429 13.0644 7.25696 12.9499 7.16425C12.4451 6.75551 11.9496 6.7437 11.3348 6.80734C11.1826 6.86314 11.0129 6.90759 10.8696 6.98332C10.6537 7.09749 10.4274 7.34437 10.1926 7.39484C10.1854 7.36897 10.1793 7.34222 10.1771 7.31539C10.1634 7.14497 10.2685 6.85108 10.3095 6.67558C10.5822 5.50903 10.9834 4.53475 11.7503 3.60481Z" fill="#222222"/>
<path d="M28.5375 8.73904C28.5717 8.74819 28.6031 8.76013 28.6339 8.77749C29.5548 9.29548 30.2241 11.5444 30.4778 12.5001C30.0263 12.1344 29.5895 11.9699 29.0186 11.8729L28.9798 11.8716C28.2889 11.8517 27.8403 12.1811 27.3595 12.6343C27.9558 11.3439 28.3269 10.1462 28.5375 8.73904Z" fill="#222222"/>
<path d="M4.00028 13.7887C4.151 13.8494 4.5192 14.5333 4.6386 14.699C5.19526 15.4711 5.88146 16.2882 6.67662 16.8218C5.9657 16.6401 5.45151 16.5725 4.76856 16.8866C4.27494 17.2063 3.98453 17.5473 3.74854 18.087C3.50951 16.764 3.35056 15.0218 4.00028 13.7887Z" fill="#222222"/>
<path d="M17.3976 2.42259C18.522 2.68577 19.8132 4.46214 20.4616 5.36637C20.0109 5.24693 19.6037 5.19242 19.1358 5.22574C19.0163 5.24173 18.9021 5.27094 18.7875 5.30763C18.0907 5.53063 17.8322 6.04588 17.5179 6.65819C17.7404 5.26598 17.6608 3.80303 17.3976 2.42259Z" fill="#222222"/>
<path d="M28.4432 12.3861C28.5691 12.348 28.6978 12.3195 28.8293 12.3106C29.3554 12.2749 29.9235 12.6475 30.3026 12.9762C31.6325 14.1292 32.6851 16.1242 32.7987 17.8892C32.8652 18.9195 32.5847 20.0146 31.8924 20.7993C31.2345 21.5449 30.2908 21.9727 29.3043 22.032C28.8584 22.0386 28.428 22.0006 27.9953 21.8877C27.0712 21.6464 26.2848 21.0812 25.8049 20.2493C25.1827 19.17 25.1593 17.812 25.4721 16.6337C25.9043 15.0049 26.9645 13.2468 28.4432 12.3861Z" fill="#222222"/>
<path d="M5.02353 17.2048C5.37153 17.0918 5.71704 17.1045 6.07241 17.1758C7.6832 17.4988 9.38138 18.8843 10.2705 20.2332C10.906 21.1973 11.2909 22.4087 11.0487 23.5629C10.7998 24.7489 10.0239 25.487 9.05024 26.1204C8.33864 26.3784 7.71034 26.5742 6.93913 26.5031C5.96075 26.4128 5.12397 25.964 4.497 25.2095C3.51889 24.0325 3.28678 22.4669 3.42207 20.9844C3.54653 19.6208 3.93445 18.1131 5.02353 17.2048Z" fill="#222222"/>
<path d="M11.1697 7.27747C11.4093 7.2026 11.6614 7.16804 11.9084 7.12607C12.2793 7.26128 12.5446 7.4243 12.8384 7.68971C14.3253 9.0332 15.6678 12.0839 15.7649 14.0733C15.814 15.0785 15.5208 16.0561 14.8355 16.8065C14.1528 17.554 13.2264 17.8775 12.2334 17.9213C11.8961 17.9576 11.5317 17.9088 11.2034 17.8317C10.2133 17.5989 9.43769 16.9824 8.90594 16.1257C8.06151 14.7653 7.88882 12.9295 8.25149 11.39C8.64567 9.71675 9.70551 8.18216 11.1697 7.27747Z" fill="#222222"/>
<path d="M18.9297 5.62756C19.3408 5.53352 19.816 5.61121 20.2157 5.72239C21.8745 6.18364 23.3785 7.47001 24.2126 8.9575C24.9276 10.2322 25.2849 11.9491 24.8789 13.3706C24.5903 14.3812 23.9379 15.1258 23.0292 15.6309C22.0973 16.0474 21.0632 16.2438 20.0784 15.8799C19.1368 15.5319 18.4047 14.797 17.9898 13.8915C17.1406 12.0382 17.234 8.75753 17.9397 6.87097C18.1385 6.33932 18.3981 5.86965 18.9297 5.62756Z" fill="#222222"/>
<path d="M17.2113 17.5035C17.4089 17.438 17.6113 17.3946 17.8184 17.3732C18.0255 17.3518 18.2324 17.353 18.4393 17.3766C19.2366 17.4621 19.992 17.8334 20.6737 18.238C22.2241 19.1581 23.4642 20.4537 24.9211 21.4903C26.7252 22.774 29.1423 23.5515 30.5293 25.264C31.3688 26.3006 31.8103 27.7071 31.6646 29.0362C31.6557 29.1111 31.6449 29.1859 31.6324 29.2604C31.6197 29.3349 31.6052 29.409 31.589 29.4828C31.5727 29.5564 31.5546 29.6297 31.5347 29.7027C31.5149 29.7755 31.4933 29.8478 31.4699 29.9197C31.4465 29.9914 31.4213 30.0626 31.3945 30.1332C31.3674 30.2037 31.3388 30.2735 31.3085 30.3427C31.2782 30.4119 31.2462 30.4802 31.2125 30.5477C31.1788 30.6154 31.1434 30.6821 31.1064 30.7479C31.0694 30.8138 31.0308 30.8787 30.9906 30.9426C30.9505 31.0067 30.9088 31.0696 30.8655 31.1315C30.8223 31.1933 30.7775 31.2542 30.7312 31.314C30.6851 31.3736 30.6374 31.4321 30.5882 31.4894C30.5391 31.5468 30.4887 31.603 30.4367 31.6579C30.3849 31.7128 30.3317 31.7663 30.2771 31.8186C30.2226 31.8709 30.1669 31.9218 30.1099 31.9713C30.0529 32.0208 29.9947 32.0689 29.9353 32.1156C27.9834 33.6668 25.6644 33.0311 23.3927 33.1138C22.6877 33.1393 21.8933 33.4101 21.2052 33.3332C21.0978 33.4392 19.4902 33.7926 19.2079 33.8796C18.5387 34.0861 17.8566 34.3287 17.2228 34.6276C16.6052 34.9186 16.0243 35.2631 15.3871 35.517C14.0465 36.051 12.6419 36.138 11.2948 35.5528C10.2486 35.0981 9.32137 34.1665 8.90804 33.0999C8.37435 31.7227 8.4506 30.268 9.04044 28.924C9.24022 28.4686 9.49462 28.044 9.77857 27.6365C10.6251 26.4214 11.6434 25.3577 12.4178 24.0836C13.4219 22.4317 14.0565 20.616 15.2737 19.0762C15.8012 18.409 16.4056 17.8169 17.2113 17.5035Z" fill="#222222"/>
</svg>
