<svg width="24" height="24" fill="none" xmlns="http://www.w3.org/2000/svg"><circle cx="12" cy="12" r="11" fill="url(#a)" stroke="#FBC44A" stroke-width="2"/><g filter="url(#b)"><path d="M8.496 17c-.24 0-.415-.05-.525-.15-.1-.11-.15-.275-.15-.495V7.46c0-.22.05-.385.15-.495.11-.11.285-.165.525-.165h4.395c1.1 0 1.925.255 2.475.765.55.5.825 1.195.825 2.085 0 .47-.115.89-.345 1.26-.22.37-.525.635-.915.795 1.03.34 1.545 1.095 1.545 2.265 0 .57-.135 1.085-.405 1.545-.26.46-.66.825-1.2 1.095-.53.26-1.19.39-1.98.39H8.496Zm3.975-6.075c.4 0 .71-.1.93-.3.22-.2.33-.49.33-.87 0-.41-.105-.7-.315-.87-.2-.18-.515-.27-.945-.27h-2.175v2.31h2.175Zm.24 4.26c.44 0 .765-.115.975-.345.22-.24.33-.55.33-.93 0-.43-.125-.75-.375-.96-.25-.22-.6-.33-1.05-.33h-2.295v2.565h2.415Z" fill="#fff"/></g><defs><linearGradient id="a" x1="12" y1="0" x2="12" y2="24" gradientUnits="userSpaceOnUse"><stop stop-color="#E1A300"/><stop offset="1" stop-color="#DB7510"/></linearGradient><filter id="b" x="3.821" y="2.8" width="16.655" height="18.2" filterUnits="userSpaceOnUse" color-interpolation-filters="sRGB"><feFlood flood-opacity="0" result="BackgroundImageFix"/><feColorMatrix in="SourceAlpha" values="0 0 0 0 0 0 0 0 0 0 0 0 0 0 0 0 0 0 127 0" result="hardAlpha"/><feOffset/><feGaussianBlur stdDeviation="2"/><feComposite in2="hardAlpha" operator="out"/><feColorMatrix values="0 0 0 0 0 0 0 0 0 0 0 0 0 0 0 0 0 0 0.25 0"/><feBlend in2="BackgroundImageFix" result="effect1_dropShadow_2448_2276"/><feBlend in="SourceGraphic" in2="effect1_dropShadow_2448_2276" result="shape"/></filter></defs></svg>