<!-- <svg width="17" height="18" fill="none" xmlns="http://www.w3.org/2000/svg"><circle cx="8.5" cy="9.5" r="8.5" fill="#FEAC3E"/><path d="M9.092 5.624c.752 0 1.348.064 1.788.192.448.12.768.336.96.648.192.312.288.752.288 1.32 0 .592-.116 1.044-.348 1.356-.224.304-.604.48-1.14.528v.072c.656.056 1.112.272 1.368.648.264.368.396.884.396 1.548 0 .568-.104 1.008-.312 1.32-.2.312-.516.532-.948.66-.424.12-.976.18-1.656.18-.568 0-1.068-.004-1.5-.012-.424 0-.816-.008-1.176-.024A59.747 59.747 0 0 1 5.72 14l.18-1.512c.208.008.596.016 1.164.024.576.008 1.248.012 2.016.012.288 0 .508-.024.66-.072a.504.504 0 0 0 .324-.312c.064-.152.096-.368.096-.648 0-.296-.032-.524-.096-.684a.54.54 0 0 0-.336-.324c-.152-.064-.376-.096-.672-.096H5.888V9.032h3.144c.248 0 .44-.024.576-.072a.468.468 0 0 0 .288-.276c.056-.136.084-.332.084-.588 0-.248-.028-.436-.084-.564a.472.472 0 0 0-.3-.264c-.144-.048-.348-.072-.612-.072h-1.26c-.36-.008-.688-.008-.984 0-.288 0-.568.012-.84.036L5.72 5.72c.344-.032.676-.052.996-.06.32-.016.672-.024 1.056-.024.384-.008.824-.012 1.32-.012Zm-1.176.096V14H5.72V5.72h2.196Z" fill="#222"/></svg> -->
<svg width="24" height="24" fill="none" xmlns="http://www.w3.org/2000/svg"><circle cx="12" cy="12" r="11" fill="url(#a)" stroke="#FBC44A" stroke-width="2"/><g filter="url(#b)"><path d="M8.496 17c-.24 0-.415-.05-.525-.15-.1-.11-.15-.275-.15-.495V7.46c0-.22.05-.385.15-.495.11-.11.285-.165.525-.165h4.395c1.1 0 1.925.255 2.475.765.55.5.825 1.195.825 2.085 0 .47-.115.89-.345 1.26-.22.37-.525.635-.915.795 1.03.34 1.545 1.095 1.545 2.265 0 .57-.135 1.085-.405 1.545-.26.46-.66.825-1.2 1.095-.53.26-1.19.39-1.98.39H8.496Zm3.975-6.075c.4 0 .71-.1.93-.3.22-.2.33-.49.33-.87 0-.41-.105-.7-.315-.87-.2-.18-.515-.27-.945-.27h-2.175v2.31h2.175Zm.24 4.26c.44 0 .765-.115.975-.345.22-.24.33-.55.33-.93 0-.43-.125-.75-.375-.96-.25-.22-.6-.33-1.05-.33h-2.295v2.565h2.415Z" fill="#fff"/></g><defs><linearGradient id="a" x1="12" y1="0" x2="12" y2="24" gradientUnits="userSpaceOnUse"><stop stop-color="#E1A300"/><stop offset="1" stop-color="#DB7510"/></linearGradient><filter id="b" x="3.821" y="2.8" width="16.655" height="18.2" filterUnits="userSpaceOnUse" color-interpolation-filters="sRGB"><feFlood flood-opacity="0" result="BackgroundImageFix"/><feColorMatrix in="SourceAlpha" values="0 0 0 0 0 0 0 0 0 0 0 0 0 0 0 0 0 0 127 0" result="hardAlpha"/><feOffset/><feGaussianBlur stdDeviation="2"/><feComposite in2="hardAlpha" operator="out"/><feColorMatrix values="0 0 0 0 0 0 0 0 0 0 0 0 0 0 0 0 0 0 0.25 0"/><feBlend in2="BackgroundImageFix" result="effect1_dropShadow_2448_2276"/><feBlend in="SourceGraphic" in2="effect1_dropShadow_2448_2276" result="shape"/></filter></defs></svg>