<svg width="24" height="24" viewBox="0 0 24 24" fill="none" xmlns="http://www.w3.org/2000/svg">
<path d="M22.2857 6.85714V22.2857H6.85711V6.85714H22.2857ZM22.2857 5.14285H6.85711C6.40245 5.14285 5.96642 5.32346 5.64493 5.64496C5.32343 5.96645 5.14282 6.40248 5.14282 6.85714V22.2857C5.14282 22.7404 5.32343 23.1764 5.64493 23.4979C5.96642 23.8194 6.40245 24 6.85711 24H22.2857C22.7403 24 23.1764 23.8194 23.4979 23.4979C23.8194 23.1764 24 22.7404 24 22.2857V6.85714C24 6.40248 23.8194 5.96645 23.4979 5.64496C23.1764 5.32346 22.7403 5.14285 22.2857 5.14285Z" fill="#F36F17"/>
<path d="M1.71429 13.7143H0V1.71429C0 1.25963 0.180612 0.823593 0.502103 0.502103C0.823593 0.180612 1.25963 0 1.71429 0H13.7143V1.71429H1.71429V13.7143Z" fill="#F36F17"/>
</svg>
