<!-- <svg width="154" height="264" fill="none" xmlns="http://www.w3.org/2000/svg"><path d="M124.062 109.376h-21.867l5.9-52.283L114.545 0 80.498 46.283l-62.52 84.959L0 155.681h52.705l-4.439 52.576L43.564 264l32.479-45.541 60.502-84.834 17.304-24.249h-29.787Z" fill="#FECD57"/><path d="M114.545 0 0 155.681h52.705L43.564 264l29.703-124.555-43.288-.719L114.545 0Z" fill="#F6BB42"/></svg> -->
<svg width="26" height="26" fill="none" xmlns="http://www.w3.org/2000/svg"><circle cx="13" cy="13" r="12" fill="url(#a)" stroke="#9CFF6D" stroke-width="2"/><g filter="url(#b)"><path d="M16.258 11.457h-1.28l.345-3.564L15.701 4l-1.992 3.156-3.657 5.792L9 14.615h3.084l-.26 3.584L11.547 22l1.9-3.105 3.54-5.784L18 11.457h-1.742Z" fill="#fff"/></g><defs><linearGradient id="a" x1="13" y1="0" x2="13" y2="26" gradientUnits="userSpaceOnUse"><stop stop-color="#76FF36"/><stop offset="1" stop-color="#4BAA1F"/></linearGradient><filter id="b" x="5" y="0" width="17" height="26" filterUnits="userSpaceOnUse" color-interpolation-filters="sRGB"><feFlood flood-opacity="0" result="BackgroundImageFix"/><feColorMatrix in="SourceAlpha" values="0 0 0 0 0 0 0 0 0 0 0 0 0 0 0 0 0 0 127 0" result="hardAlpha"/><feOffset/><feGaussianBlur stdDeviation="2"/><feComposite in2="hardAlpha" operator="out"/><feColorMatrix values="0 0 0 0 0 0 0 0 0 0 0 0 0 0 0 0 0 0 0.25 0"/><feBlend in2="BackgroundImageFix" result="effect1_dropShadow_2448_2280"/><feBlend in="SourceGraphic" in2="effect1_dropShadow_2448_2280" result="shape"/></filter></defs></svg>