<svg width="17" height="19" fill="none" xmlns="http://www.w3.org/2000/svg"><path d="M8.241.74a.5.5 0 0 1 .518 0l.257-.424-.257.425 7.5 4.536a.5.5 0 0 1 .241.428v7.8a.5.5 0 0 1-.25.433l-7.5 4.34a.5.5 0 0 1-.5 0l-7.5-4.34a.5.5 0 0 1-.25-.432V5.705a.5.5 0 0 1 .241-.428l7.5-4.536Z" fill="#3C95E3" stroke="#222" stroke-linejoin="round"/><path d="M7.94 5.72v5.964c0 .16.052.288.156.384a.629.629 0 0 0 .42.132h2.832l.108 1.692c-.6.072-1.232.112-1.896.12-.664.016-1.32.024-1.968.024-.6 0-1.068-.168-1.404-.504-.328-.336-.492-.772-.492-1.308V5.72H7.94Z" fill="#222"/></svg>