<svg width="26" height="27" fill="none" xmlns="http://www.w3.org/2000/svg"><circle cx="13" cy="13" r="12" fill="url(#a)" stroke="#6C5FDC" stroke-width="2"/><g filter="url(#b)"><path d="M9.738 18c-.24 0-.415-.05-.525-.15-.1-.11-.15-.275-.15-.495v-8.91c0-.22.05-.38.15-.48.11-.11.29-.165.54-.165h.93c.17 0 .294.025.374.075.09.04.185.125.285.255l4.2 5.925V8.46c0-.22.05-.385.15-.495.11-.11.285-.165.526-.165h1.125c.25 0 .424.055.524.165.1.1.15.265.15.495v8.895c0 .22-.05.385-.15.495-.1.1-.274.15-.524.15h-.945a.946.946 0 0 1-.375-.06c-.08-.05-.17-.14-.27-.27l-4.216-5.91v5.595c0 .22-.05.385-.15.495-.1.1-.274.15-.524.15H9.738Z" fill="#fff"/></g><defs><linearGradient id="a" x1="13" y1="0" x2="13" y2="26" gradientUnits="userSpaceOnUse"><stop stop-color="#4747C9"/><stop offset="1" stop-color="#601A99"/></linearGradient><filter id="b" x="5.063" y="3.8" width="16.955" height="18.2" filterUnits="userSpaceOnUse" color-interpolation-filters="sRGB"><feFlood flood-opacity="0" result="BackgroundImageFix"/><feColorMatrix in="SourceAlpha" values="0 0 0 0 0 0 0 0 0 0 0 0 0 0 0 0 0 0 127 0" result="hardAlpha"/><feOffset/><feGaussianBlur stdDeviation="2"/><feComposite in2="hardAlpha" operator="out"/><feColorMatrix values="0 0 0 0 0 0 0 0 0 0 0 0 0 0 0 0 0 0 0.25 0"/><feBlend in2="BackgroundImageFix" result="effect1_dropShadow_2448_2277"/><feBlend in="SourceGraphic" in2="effect1_dropShadow_2448_2277" result="shape"/></filter></defs></svg>