<svg width="17" height="18" fill="none" xmlns="http://www.w3.org/2000/svg"><circle cx="8.5" cy="9.5" r="8.5" fill="url(#a)"/><path d="M12.052 5.72v7.488c0 .528-.26.792-.78.792h-1.008c-.24 0-.42-.056-.54-.168a2.244 2.244 0 0 1-.348-.492L7.348 9.812c-.096-.2-.192-.416-.288-.648a5.977 5.977 0 0 1-.24-.696h-.108c.032.232.056.472.072.72.024.24.036.472.036.696V14h-2.1V6.512c0-.528.264-.792.792-.792h.996c.24 0 .416.056.528.168.112.112.232.276.36.492L9.34 9.776c.112.192.22.404.324.636.104.232.204.476.3.732h.108a24.564 24.564 0 0 1-.06-.732c-.016-.24-.024-.48-.024-.72L9.976 5.72h2.076Z" fill="#fff"/><defs><linearGradient id="a" x1="5.368" y1="1.895" x2="14.316" y2="17.105" gradientUnits="userSpaceOnUse"><stop stop-color="#424FD2"/><stop offset="1" stop-color="#680A89"/></linearGradient></defs></svg>