<svg width="16" height="17" viewBox="0 0 16 17" fill="none" xmlns="http://www.w3.org/2000/svg">
<path d="M10.0134 5.48376C10.0134 5.62873 10.0705 5.76777 10.1723 5.87028C10.274 5.97279 10.4119 6.03038 10.5558 6.03038H16V0.549128C16 0.40349 15.9426 0.263817 15.8404 0.160836C15.7382 0.0578544 15.5996 0 15.4551 0C15.3106 0 15.172 0.0578544 15.0698 0.160836C14.9676 0.263817 14.9102 0.40349 14.9102 0.549128V4.12974C13.8897 2.62389 12.4019 1.50222 10.6803 0.940861C8.95871 0.379503 7.10085 0.410254 5.39847 1.02829C3.69609 1.64632 2.24562 2.81663 1.27482 4.35544C0.304012 5.89425 -0.132135 7.7144 0.0348624 9.53009C0.20186 11.3458 0.962544 13.0541 2.19746 14.3869C3.43238 15.7197 5.07159 16.6014 6.85769 16.8936C8.64378 17.1858 10.4756 16.872 12.0655 16.0013C13.6554 15.1307 14.9133 13.7525 15.6417 12.0833C15.6956 11.948 15.6952 11.7968 15.6405 11.6617C15.5858 11.5267 15.4811 11.4184 15.3485 11.3598C15.216 11.3011 15.066 11.2968 14.9303 11.3476C14.7947 11.3984 14.6839 11.5004 14.6215 11.632C13.9894 13.0828 12.8945 14.2793 11.5106 15.0316C10.1268 15.7839 8.53321 16.0489 6.98287 15.7845C5.43254 15.5201 4.01425 14.7414 2.9531 13.5721C1.89195 12.4029 1.24873 10.9099 1.12554 9.33025C1.00234 7.75059 1.40622 6.17471 2.27307 4.85273C3.13993 3.53075 4.4201 2.53839 5.91041 2.03317C7.40072 1.52794 9.01578 1.53878 10.4993 2.06397C11.9828 2.58917 13.2497 3.59862 14.099 4.93212H10.5608C10.4887 4.93145 10.4172 4.94526 10.3505 4.97275C10.2838 5.00024 10.2232 5.04084 10.1722 5.0922C10.1213 5.14356 10.081 5.20464 10.0537 5.27187C10.0264 5.3391 10.0127 5.41113 10.0134 5.48376Z" fill="white"/>
</svg>
