<svg width="24" height="24" fill="none" xmlns="http://www.w3.org/2000/svg"><circle cx="12" cy="12" r="11" fill="url(#a)" stroke="#FF6967" stroke-width="2"/><path d="m15.436 6.41-5.88 6.565.82.82L17.898 6l-2.462.41Z" fill="#FEFEFE"/><path d="m17.488 8.735-6.291 5.88-.82-.82L17.896 6l-.41 2.735Z" fill="#E8ECF4"/><path d="m6.82 17.215 2.462-2.462-.82-.82L6 16.394l.82.82Z" fill="#636977"/><path d="m8.735 12.018-1.094 1.094 1.641 1.64 1.094-1.093-1.64-1.641Z" fill="#FECD00"/><path d="m10.376 13.658-1.094 1.094 1.641 1.641 1.094-1.094-1.64-1.64Z" fill="#D3A227"/><path d="m7.641 18.034 2.462-2.461-.82-.821-2.462 2.462.82.82Z" fill="#414952"/><path d="m8.462 6.41 5.88 6.565-.82.82L6 6l2.462.41Z" fill="#FEFEFE"/><path d="m6.41 8.735 6.291 5.88.82-.82L6.002 6l.41 2.735Z" fill="#E8ECF4"/><path d="m17.077 17.215-2.461-2.462.82-.82 2.462 2.461-.82.82Z" fill="#636977"/><path d="m15.163 12.018 1.094 1.094-1.641 1.64-1.094-1.093 1.64-1.641Z" fill="#FECD00"/><path d="m13.522 13.658 1.094 1.094-1.641 1.641L11.88 15.3l1.64-1.64Z" fill="#D3A227"/><path d="m16.257 18.034-2.462-2.461.82-.821 2.462 2.462-.82.82Z" fill="#414952"/><defs><linearGradient id="a" x1="12" y1="0" x2="12" y2="24" gradientUnits="userSpaceOnUse"><stop stop-color="#EC0A07"/><stop offset="1" stop-color="#AB0502"/></linearGradient></defs></svg>