<svg width="35" height="35" viewBox="0 0 35 35" fill="none" xmlns="http://www.w3.org/2000/svg">
<path d="M12.2423 34.9624L8.7289 34.9595C8.04962 34.9653 7.36578 35.0001 6.68678 34.9783C4.8551 34.9195 3.13334 34.2114 1.86985 32.8667C1.81702 32.8109 1.76516 32.7542 1.71428 32.6966C1.66342 32.639 1.61357 32.5805 1.56471 32.5212C1.51589 32.4619 1.46809 32.4017 1.4213 32.3408C1.37455 32.2798 1.32886 32.218 1.28424 32.1555C1.23961 32.0929 1.19608 32.0296 1.15365 31.9655C1.11125 31.9015 1.06994 31.8367 1.02973 31.7712C0.989556 31.7057 0.950521 31.6395 0.912629 31.5727C0.874737 31.5058 0.83802 31.4383 0.802477 31.3702C0.766902 31.3021 0.732534 31.2334 0.699371 31.164C0.666207 31.0947 0.634234 31.0249 0.603451 30.9545C0.572699 30.884 0.543184 30.8131 0.514906 30.7417C0.486597 30.6702 0.45954 30.5983 0.433736 30.5259C0.407932 30.4535 0.383381 30.3807 0.360082 30.3075C0.336783 30.2343 0.314769 30.1607 0.294038 30.0867C0.273307 30.0127 0.25386 29.9384 0.235697 29.8637C0.217534 29.789 0.20067 29.7141 0.185107 29.6388C-0.0421974 28.4838 0.0378918 26.8728 0.0421194 25.6677L0.0450789 20.4662L0.0355905 11.1574L0.0252563 8.83424C0.0158147 8.17516 -0.0142015 7.51622 0.00801688 6.85686C0.0753297 4.85842 0.746062 3.16903 2.22389 1.79665C2.28198 1.7432 2.34101 1.69081 2.40098 1.63948C2.46095 1.58812 2.52181 1.53785 2.58356 1.48865C2.64529 1.43945 2.70787 1.39137 2.77132 1.34439C2.83476 1.29742 2.89902 1.25159 2.9641 1.2069C3.02917 1.16222 3.09501 1.11869 3.16162 1.07632C3.22826 1.03395 3.2956 0.992783 3.36365 0.952824C3.43173 0.912834 3.5005 0.874066 3.56996 0.836518C3.63938 0.799002 3.70947 0.762708 3.78021 0.727634C3.85095 0.692592 3.92229 0.658803 3.99422 0.626266C4.06615 0.593729 4.13863 0.562492 4.21166 0.532554C4.28469 0.502585 4.35823 0.473915 4.43229 0.446546C4.50636 0.419207 4.58087 0.393184 4.65584 0.368476C4.73081 0.343737 4.8062 0.32036 4.88202 0.298345C4.9578 0.276299 5.03396 0.2556 5.1105 0.236247C5.18706 0.216894 5.26393 0.198918 5.34109 0.182321C5.41825 0.165692 5.49569 0.150442 5.57342 0.136569C6.67043 -0.0602025 7.83758 0.0135458 8.94902 0.0134988L13.9132 0.0163171L24.1434 0.0167866L26.6985 0.0252888C27.2134 0.0240675 27.7288 0.00292976 28.2435 0.0214842C28.7039 0.0381128 29.1609 0.0688804 29.6131 0.163626C30.91 0.435413 32.1381 1.17642 33.0337 2.14599C34.4962 3.72937 34.995 5.56363 34.9087 7.68767C34.8834 7.92785 34.8976 8.17601 34.9 8.4174C34.6258 8.05637 34.2905 7.71938 33.985 7.38333C33.2593 6.59146 32.5237 5.80888 31.7782 5.03561C31.4227 4.66137 30.6084 3.66187 30.2168 3.45904C30.2133 3.45087 30.21 3.4426 30.2065 3.43447C30.0554 3.08706 29.8681 2.73945 29.4927 2.59783C28.7533 2.31886 27.4042 2.814 26.7026 3.13746C25.8393 3.38261 24.275 4.65216 23.6264 5.28447C23.4802 5.24511 23.2903 5.11274 23.1491 5.04251C22.802 4.87002 22.4392 4.69932 22.0733 4.57043C20.9783 4.18482 19.8747 3.91501 18.7176 3.8027C18.3053 3.76267 17.891 3.7771 17.4782 3.73412C15.9433 3.60527 13.7835 4.14349 12.3614 4.73704C12.088 4.85119 11.731 4.98661 11.4982 5.16835C11.4924 5.17286 11.4871 5.17803 11.4815 5.18282C10.966 5.50111 10.464 5.82584 9.9766 6.18683C9.83014 6.29534 9.65587 6.40925 9.52975 6.54044C9.36943 6.32408 9.23245 6.08081 9.08561 5.85459C8.87802 5.53955 8.66655 5.22715 8.45119 4.91737C7.97159 4.41241 7.56809 3.79617 6.85302 3.61739C6.37638 3.7956 6.06039 4.17026 5.853 4.6259C5.47341 5.45996 5.57633 6.44917 5.89204 7.28614C6.19877 8.09935 6.6958 8.63512 7.45249 9.04896C7.09892 9.58267 6.84348 10.1673 6.60965 10.7611C6.40936 10.5574 6.24227 10.3254 6.07415 10.0954C5.91792 10.3304 5.76956 10.5702 5.62908 10.8148C5.4886 11.0595 5.35629 11.3085 5.23216 11.5619C5.10805 11.8153 4.99239 12.0724 4.88516 12.3334C4.77794 12.5944 4.67941 12.8586 4.58956 13.126C4.42478 13.6084 4.29927 14.1042 4.13213 14.5853C4.00925 14.939 3.85396 15.2799 3.69261 15.6174C3.38986 16.2506 3.02953 16.8481 2.66032 17.4442C2.28646 18.0478 1.89888 18.645 1.6371 19.3084C1.57343 19.4707 1.51683 19.6353 1.46729 19.8025C1.41775 19.9696 1.37546 20.1385 1.34042 20.3092C1.30541 20.4799 1.27775 20.6519 1.25746 20.825C1.2372 20.9981 1.22438 21.1718 1.21899 21.346C1.71738 20.1993 2.30915 19.5282 3.48663 19.0539C2.5124 20.7189 1.98541 22.3515 2.23422 24.297C2.27246 24.596 2.30299 24.9197 2.38341 25.2101C2.39694 25.259 2.41319 25.2981 2.43752 25.3424L2.47257 25.355C2.51155 25.3095 2.51658 25.2712 2.52917 25.2142C2.67122 25.3389 2.82275 25.46 2.95526 25.5948C3.2783 25.9234 3.57362 26.3242 3.96641 26.5743C3.96547 26.636 3.98375 26.6641 4.01278 26.7163C4.37367 27.0311 4.69704 27.3958 5.03482 27.7357L7.02555 29.7314C8.25074 30.9233 9.46641 32.1248 10.6726 33.336C11.0764 33.7356 11.4976 34.1155 11.8942 34.5225C12.016 34.6476 12.1836 34.7948 12.2423 34.9624Z" fill="url(#paint0_linear_51_543)"/>
<path d="M7.66211 2.83551C8.34383 3.15385 8.99629 3.56129 9.63795 3.95352C10.2682 4.33875 10.9077 4.71519 11.4816 5.18286C10.966 5.50115 10.464 5.82588 9.97663 6.18687C9.83016 6.29538 9.65589 6.40929 9.52977 6.54048C9.36945 6.32413 9.23247 6.08085 9.08564 5.85463C8.87805 5.53959 8.66657 5.22719 8.45121 4.91741C8.30907 4.24711 7.72294 3.55246 7.66211 2.83551Z" fill="#502918"/>
<path d="M6.07412 10.0954C5.98045 9.868 5.68917 9.4862 5.54971 9.25059C5.17462 8.61696 4.87808 7.87201 4.7024 7.15689C4.38951 5.88316 4.40915 4.27104 5.11708 3.12207C5.31108 2.80725 5.56629 2.59306 5.93409 2.51081C6.47921 2.38891 7.19344 2.54303 7.66205 2.83549C7.72288 3.55244 8.30901 4.24708 8.45115 4.91739C7.97156 4.41243 7.56806 3.79618 6.85298 3.6174C6.37634 3.79562 6.06035 4.17028 5.85297 4.62592C5.47337 5.45998 5.57629 6.44919 5.892 7.28616C6.19874 8.09936 6.69576 8.63514 7.45246 9.04898C7.09889 9.58269 6.84345 10.1673 6.60961 10.7611C6.40932 10.5574 6.24223 10.3254 6.07412 10.0954Z" fill="#8F5124"/>
<path d="M26.7026 3.1375C27.4042 2.81404 28.7533 2.3189 29.4927 2.59787C29.8681 2.73949 30.0555 3.0871 30.2065 3.43451C30.21 3.44264 30.2133 3.45091 30.2168 3.45908C30.6084 3.66191 31.4228 4.66141 31.7782 5.03564C32.5237 5.80892 33.2593 6.5915 33.985 7.38337C34.2905 7.71942 34.6258 8.05641 34.9 8.41744C34.8976 8.17605 34.8834 7.92789 34.9087 7.68771C34.9369 8.23232 34.9207 8.78468 34.9209 9.33009L34.9221 12.1551L34.9236 20.8277L34.9249 26.1152C34.9254 27.2259 35.0079 28.3891 34.8177 29.4861C34.8045 29.5613 34.7901 29.6362 34.7743 29.7109C34.7585 29.7856 34.7415 29.86 34.7231 29.9341C34.7048 30.0082 34.6851 30.0819 34.6642 30.1553C34.6433 30.2287 34.6211 30.3018 34.5976 30.3744C34.5741 30.447 34.5493 30.5192 34.5233 30.591C34.4973 30.6627 34.4701 30.734 34.4416 30.8048C34.4131 30.8757 34.3834 30.946 34.3524 31.0157C34.3215 31.0855 34.2893 31.1547 34.2559 31.2234C34.2226 31.292 34.188 31.3601 34.1523 31.4275C34.1165 31.495 34.0796 31.5618 34.0415 31.6279C34.0034 31.6941 33.9642 31.7596 33.9238 31.8243C33.8835 31.8891 33.842 31.9532 33.7994 32.0165C33.7568 32.0799 33.7131 32.1424 33.6683 32.2042C33.6235 32.266 33.5777 32.3271 33.5307 32.3873C33.4838 32.4475 33.4359 32.5068 33.3868 32.5653C33.3379 32.6239 33.2879 32.6816 33.2369 32.7383C33.1763 32.8066 33.1143 32.8735 33.051 32.9392C32.9876 33.0049 32.923 33.0692 32.8569 33.1322C32.791 33.1952 32.7237 33.2568 32.6551 33.317C32.5865 33.3772 32.5168 33.4359 32.4457 33.4932C32.3747 33.5505 32.3026 33.6063 32.2293 33.6606C32.1559 33.7149 32.0815 33.7677 32.006 33.8189C31.9305 33.8701 31.854 33.9198 31.7764 33.9678C31.6989 34.0159 31.6204 34.0623 31.5408 34.1071C31.4614 34.1519 31.381 34.195 31.2997 34.2364C31.2184 34.2779 31.1363 34.3176 31.0534 34.3557C30.9705 34.3937 30.8868 34.4301 30.8024 34.4647C30.7179 34.4992 30.6328 34.532 30.547 34.5631C30.4612 34.5941 30.3748 34.6234 30.2878 34.6509C30.2008 34.6783 30.1133 34.704 30.0252 34.7278C29.9371 34.7517 29.8486 34.7737 29.7596 34.7939C29.6706 34.814 29.5813 34.8323 29.4915 34.8488C29.0606 34.9262 28.6259 34.952 28.1892 34.9733C27.0913 35.027 25.9703 34.9833 24.8699 34.9826L18.6788 34.9817L14.3174 34.9723C13.9358 34.9701 13.5543 34.9702 13.1728 34.9726C12.8651 34.9757 12.5491 34.9922 12.2423 34.9624C12.1836 34.7948 12.016 34.6477 11.8942 34.5226C11.4976 34.1155 11.0764 33.7356 10.6726 33.336C9.46641 32.1249 8.25075 30.9234 7.02556 29.7314L5.03483 27.7358C4.69704 27.3959 4.37368 27.0311 4.01278 26.7164C3.98375 26.6641 3.96548 26.636 3.96642 26.5744C3.57363 26.3242 3.2783 25.9234 2.95527 25.5948C2.82276 25.4601 2.67122 25.3389 2.52917 25.2143C2.51659 25.2712 2.51156 25.3096 2.47257 25.355L2.43753 25.3424C2.4132 25.2981 2.39694 25.2591 2.38342 25.2101C2.303 24.9198 2.27247 24.596 2.23423 24.297C1.98541 22.3515 2.5124 20.7189 3.48663 19.0539C2.30915 19.5283 1.71738 20.1994 1.21899 21.3461C1.22438 21.1718 1.2372 20.9982 1.25747 20.8251C1.27776 20.6519 1.30541 20.48 1.34042 20.3093C1.37546 20.1385 1.41775 19.9696 1.46729 19.8025C1.51684 19.6354 1.57344 19.4707 1.6371 19.3084C1.89889 18.645 2.28646 18.0478 2.66032 17.4442C3.02953 16.8482 3.38987 16.2507 3.69261 15.6174C3.85396 15.2799 4.00926 14.939 4.13214 14.5854C4.29927 14.1042 4.42478 13.6085 4.58957 13.126C4.67941 12.8586 4.77794 12.5944 4.88517 12.3334C4.99239 12.0725 5.10806 11.8153 5.23216 11.5619C5.3563 11.3086 5.4886 11.0595 5.62909 10.8149C5.76957 10.5702 5.91792 10.3304 6.07416 10.0955C6.24227 10.3255 6.40936 10.5575 6.60965 10.7611C6.84349 10.1673 7.09893 9.58271 7.4525 9.049C6.6958 8.63516 6.19878 8.09939 5.89204 7.28618C5.57633 6.44921 5.47342 5.46 5.85301 4.62594C6.06039 4.1703 6.37638 3.79564 6.85302 3.61743C7.5681 3.79621 7.9716 4.41245 8.4512 4.91741C8.66655 5.22719 8.87803 5.53959 9.08562 5.85462C9.23246 6.08085 9.36943 6.32412 9.52975 6.54048C9.65587 6.40929 9.83014 6.29538 9.97661 6.18687C10.464 5.82588 10.966 5.50115 11.4815 5.18286C11.4871 5.17807 11.4924 5.1729 11.4982 5.16839C11.731 4.98665 12.088 4.85123 12.3614 4.73708C13.7835 4.14353 15.9433 3.60531 17.4782 3.73415C17.8911 3.77714 18.3053 3.76271 18.7176 3.80274C19.8747 3.91505 20.9783 4.18486 22.0733 4.57047C22.4392 4.69936 22.802 4.87006 23.1491 5.04255C23.2903 5.11278 23.4802 5.24515 23.6264 5.28451C24.2751 4.6522 25.8393 3.38265 26.7026 3.1375Z" fill="#FBFBFB"/>
<path d="M24.0797 23.4752C24.4546 23.4706 24.8225 23.4927 25.1922 23.5561C25.1074 23.8746 24.9982 24.1308 24.8445 24.4214C24.5833 24.3372 24.3089 24.3033 24.0484 24.2109C24.0377 24.1977 24.0268 24.1847 24.0157 24.1718C23.9866 24.1384 23.9628 24.1085 23.9185 24.0952C23.5078 23.972 22.3372 23.9341 21.8514 23.9005C21.5385 23.8822 20.4988 23.8762 20.2879 23.7333L20.283 23.6935C20.3188 23.6566 20.3494 23.6311 20.4013 23.6206C20.5957 23.5813 20.8356 23.5944 21.0349 23.5922C21.758 23.5844 22.4859 23.6207 23.2082 23.6516C23.4656 23.6626 23.8026 23.7155 24.0503 23.6611C24.0886 23.6083 24.0789 23.5378 24.0797 23.4752Z" fill="#431A0F"/>
<path d="M4.28607 22.5361C4.02128 23.5068 3.84889 24.3694 3.87872 25.3866C3.89032 25.782 3.99578 26.1791 3.96642 26.5743C3.57363 26.3241 3.27831 25.9234 2.95527 25.5948C2.82276 25.46 2.67122 25.3389 2.52917 25.2142C2.57389 24.4208 3.37112 23.344 3.94265 22.8311C4.05564 22.731 4.17011 22.6327 4.28607 22.5361Z" fill="#FC6F01"/>
<path d="M26.3592 23.58C27.1528 23.5676 27.9539 23.6448 28.7474 23.6706C28.2568 24.2457 27.7898 24.8206 27.2396 25.3427C26.9771 25.3091 26.6668 25.097 26.4203 24.9889C25.9253 24.7718 25.4109 24.6211 24.9099 24.4227C25.17 24.3088 25.4308 24.1859 25.6722 24.0358C25.9055 23.8906 26.1235 23.7213 26.3592 23.58Z" fill="#431A0F"/>
<path d="M14.2811 24.3301C14.4117 24.3205 14.5721 24.2872 14.6853 24.3664C14.7028 24.4215 14.7067 24.4192 14.6816 24.4706C14.6191 24.5172 14.5429 24.5313 14.4677 24.5457C14.1756 24.602 13.8713 24.6116 13.5764 24.6536C12.8598 24.7556 12.1347 24.8861 11.4219 25.014C11.4546 25.1184 11.5019 25.2167 11.5467 25.3163C11.3035 25.4191 11.0492 25.4969 10.8052 25.5997C10.2112 25.8498 9.67715 26.1637 9.14151 26.5207C8.98542 26.4222 8.83821 26.3052 8.6893 26.1959C8.36467 25.9685 8.08898 25.6924 7.77966 25.4474C9.83639 24.6673 12.1123 24.5605 14.2811 24.3301Z" fill="#502918"/>
<path d="M20.2805 24.2971C20.5758 24.3431 20.8788 24.3611 21.1757 24.4035C22.0626 24.5273 22.9444 24.6797 23.8214 24.8608L23.8858 24.6062C24.9748 24.8701 26.0447 25.1991 27.1258 25.4924C26.9374 25.6498 26.7596 25.8201 26.5741 25.9809C26.3229 26.189 26.0696 26.3946 25.8142 26.5975C25.091 26.1823 24.2759 25.8003 23.4778 25.5557C23.5557 25.4551 23.6117 25.3429 23.6707 25.2307C22.9213 25.0358 22.1665 24.8653 21.4061 24.7193C21.0884 24.6567 20.7641 24.6162 20.4486 24.545C20.3765 24.5287 20.2937 24.5172 20.2393 24.4643C20.2286 24.3894 20.2495 24.3647 20.2805 24.2971Z" fill="#431A0F"/>
<path d="M9.6289 23.4158C9.88293 23.4033 10.8247 23.3803 11.0117 23.4793C11.0219 23.5217 11.0272 23.5602 11.0286 23.6036L11.0299 23.6516C11.1708 23.7616 14.0406 23.4 14.5242 23.6159C14.5785 23.6401 14.598 23.658 14.6161 23.7135C14.5578 23.7801 14.4978 23.7944 14.4113 23.8063C14.1584 23.8412 13.8805 23.8102 13.6242 23.8147C13.1348 23.8232 11.516 23.901 11.1222 24.0741L11.1056 24.1525C10.9213 24.2553 10.674 24.2841 10.4681 24.3268C9.47962 24.5353 8.54508 24.8614 7.63164 25.29C7.10934 24.7783 6.63181 24.2701 6.18604 23.6893C6.87025 23.6881 7.55498 23.686 8.23567 23.6085C8.70395 23.5552 9.15625 23.441 9.6289 23.4158Z" fill="#502918"/>
<path d="M9.09934 23.5117C9.35825 23.4963 9.6167 23.4954 9.87595 23.4939C9.95007 23.7429 10.0434 23.969 10.1579 24.2026C10.0426 24.1793 9.92889 24.1462 9.81521 24.1161C9.39461 23.9828 9.04311 23.8131 8.66394 23.5908C8.81191 23.5463 8.94536 23.5203 9.09934 23.5117Z" fill="#FBFBFB"/>
<path d="M28.6875 11.6146C29.9758 14.4791 31.4386 17.9036 30.2454 21.045C29.9735 21.7608 29.4089 22.8587 28.8985 23.4222C28.2174 23.3159 27.535 23.2179 26.8514 23.1282C27.938 22.2052 28.3712 21.5072 28.8789 20.1899C29.6499 18.0572 29.4758 15.5396 29.087 13.3488C29.0306 13.0308 28.9556 12.7098 28.872 12.398C28.806 12.1522 28.7064 11.8904 28.6887 11.6364C28.6882 11.6291 28.688 11.6219 28.6875 11.6146Z" fill="#431A0F"/>
<path d="M6.25735 11.7985C6.25772 12.0778 6.15002 12.3722 6.08557 12.6431C6.02469 12.899 5.9749 13.1642 5.93901 13.4247C5.69001 15.2326 5.4968 18.4651 6.13033 20.1927C6.49043 21.5883 7.24661 22.4481 8.32258 23.3516C7.592 23.3828 6.87138 23.5032 6.15462 23.6412C5.53715 23.0394 4.84547 21.5341 4.58928 20.693C3.872 18.3383 4.48194 16.087 5.35692 13.8715C5.63176 13.1756 5.9058 12.4598 6.25735 11.7985Z" fill="#502918"/>
<path d="M19.805 30.9052C19.8766 30.8867 19.9478 30.8669 20.0186 30.8459C20.0895 30.8248 20.16 30.8024 20.23 30.7788C20.3001 30.7552 20.3697 30.7303 20.4388 30.7042C20.508 30.6781 20.5766 30.6508 20.6448 30.6222C20.713 30.5936 20.7806 30.5638 20.8477 30.5327C20.9148 30.5017 20.9813 30.4695 21.0472 30.436C21.1132 30.4026 21.1785 30.368 21.2431 30.3322C21.3078 30.2964 21.3719 30.2595 21.4352 30.2214C21.4986 30.1833 21.5612 30.1441 21.6232 30.1037C21.6851 30.0634 21.7463 30.0219 21.8067 29.9794C21.8672 29.9368 21.9269 29.8932 21.9857 29.8485C22.0446 29.8038 22.1027 29.758 22.1599 29.7113C22.2171 29.6644 22.2735 29.6166 22.329 29.5678C22.3845 29.519 22.4391 29.4692 22.4928 29.4184C22.5465 29.3676 22.5993 29.3158 22.6511 29.2631C22.703 29.2104 22.7538 29.1568 22.8037 29.1023C22.5072 29.6415 22.2318 30.2046 21.8763 30.7084C21.629 31.0014 21.4068 31.3039 21.1311 31.5736C20.365 32.3229 19.3934 32.7624 18.3904 33.0956C18.0867 33.1964 17.7556 33.3199 17.4314 33.3089C17.165 33.2999 16.896 33.2137 16.6423 33.1374C15.726 32.8619 14.8652 32.485 14.1212 31.868C13.6963 31.5156 13.3622 31.1051 12.9865 30.7057C12.6911 30.2125 12.3986 29.7257 12.1724 29.1961C13.0247 30.0159 13.9791 30.6151 15.1281 30.9182C15.0244 30.5028 14.9647 30.0986 14.9462 29.6701C15.3262 30.4292 15.6409 30.8774 16.4883 31.1578C17.2231 31.401 18.0676 31.3818 18.7654 31.0305C19.3735 30.7243 19.7359 30.263 19.9748 29.6366C20.0081 30.0747 19.948 30.4898 19.805 30.9052Z" fill="#502918"/>
<path d="M14.1629 20.1818C14.1639 20.1742 14.1667 20.1666 14.1658 20.159C14.1562 20.0811 14.1512 20.1887 14.1504 20.0832C14.1483 19.8138 14.411 19.0324 14.4961 18.7172C14.7852 17.6472 15.2117 15.3737 16.0546 14.6332C16.3933 14.3356 17.04 14.0039 17.501 14.0304C18.1036 14.1458 18.6149 14.4021 18.9647 14.9224C19.2563 15.3562 19.3526 15.8586 19.5099 16.3471C19.6596 16.8125 19.931 17.232 20.0636 17.702C20.1654 18.063 20.113 18.4312 20.1787 18.7932C20.2623 19.2534 20.5154 19.8075 20.6815 20.2513L20.7119 20.2543C20.727 20.1955 20.7375 20.1364 20.7479 20.0766C20.759 20.1437 20.7853 20.2415 20.7767 20.3075C20.879 20.5092 20.8809 20.7937 20.8873 21.0162C20.88 21.2826 20.7796 21.5437 20.6552 21.7762C20.4761 22.1106 20.1839 22.4688 19.8512 22.6603C19.6928 22.7514 19.5223 22.8147 19.3804 22.9326C19.2524 23.0392 19.1426 23.1762 19.031 23.2995C18.6465 23.7245 18.3437 23.9367 17.7921 24.1051C17.7328 24.4813 17.6663 24.8723 17.7094 25.2537C17.7373 25.5008 17.803 25.7441 18.0093 25.9013C18.2708 26.1004 18.6516 26.1934 18.9542 26.3253C19.8084 26.6977 20.6323 27.2335 21.6096 27.0731C22.2235 26.9724 22.7242 26.5551 23.0773 26.0615C22.5449 25.8839 22.0033 25.7231 21.465 25.5642C21.1424 25.4689 20.8136 25.3843 20.4985 25.266C20.4034 25.2303 20.2641 25.1921 20.2207 25.0959L20.2586 25.064C20.6053 24.9739 21.0651 25.1802 21.4022 25.269C22.8724 25.6564 24.2408 26.095 25.6379 26.7002C25.2483 26.9386 24.8712 27.1975 24.4663 27.4106C23.254 28.0487 21.5694 28.602 20.2814 27.9196C19.3444 27.4232 18.5461 27.0081 17.4434 27.0231C16.5534 27.0351 15.7594 27.3393 14.985 27.75C14.6295 27.9386 14.2825 28.1422 13.8801 28.2101C12.323 28.4727 10.5441 27.5319 9.30359 26.6498C9.7093 26.4951 10.0954 26.2848 10.4997 26.1242C11.0436 25.9095 11.5963 25.7202 12.1577 25.5565C12.7191 25.3927 13.2868 25.2552 13.8609 25.1439C14.0504 25.1063 14.4927 24.9991 14.6621 25.0338C14.7262 25.0469 14.7329 25.0586 14.7672 25.1089C14.7326 25.174 14.6965 25.1914 14.6275 25.2165C14.4051 25.2973 14.1604 25.3304 13.9314 25.3949C13.2552 25.5851 12.5784 25.7696 11.9161 26.005C12.0705 26.1991 12.2191 26.3807 12.4147 26.5358C12.8958 26.9172 13.4689 27.1212 14.0843 27.0498C14.3468 27.0193 14.6011 26.9479 14.8497 26.8602C15.2606 26.7151 15.6384 26.498 16.0366 26.3234C16.3042 26.206 16.5988 26.125 16.8551 25.9856C16.9526 25.9325 17.0521 25.8655 17.1186 25.7747C17.422 25.3605 17.2718 24.5932 17.2119 24.1206C16.2972 23.8302 16.276 23.5167 15.6199 22.9301C15.4738 22.7995 15.2742 22.7259 15.1139 22.6124C14.4984 22.1766 14.1347 21.5505 14.0071 20.8151C14.007 20.8077 14.0068 20.8004 14.0068 20.793C14.0072 20.6481 14.0294 20.2556 14.1308 20.1532L14.1629 20.1818Z" fill="#502918"/>
<path d="M14.8746 20.6724L14.9027 20.6587C15.4826 20.3818 16.139 20.629 16.7336 20.7252C17.1008 20.7846 17.5217 20.8179 17.8914 20.7762C18.5145 20.706 19.2861 20.3748 19.9037 20.5815C20.0628 20.6347 20.1878 20.7182 20.3143 20.8249C20.3798 20.9351 20.4216 21.0492 20.4654 21.1689L20.4434 21.2129L20.4555 21.2669C20.3628 21.5664 20.1292 21.8046 19.9247 22.0334C19.9508 21.8344 19.9363 21.7529 19.8387 21.58C19.6912 21.5024 19.5689 21.4392 19.3958 21.4563C18.6727 21.5277 18.4458 22.8846 18.0992 23.2796C17.9787 23.417 17.8027 23.4614 17.6267 23.4755C17.4337 23.4909 17.2135 23.487 17.0416 23.3868C16.6013 23.13 16.4795 22.0867 15.9151 21.6284C15.7882 21.5254 15.6238 21.444 15.4561 21.4659C15.3458 21.4803 15.2519 21.5381 15.1872 21.6283C15.0837 21.7723 15.1029 21.89 15.1253 22.0545C14.8711 21.7786 14.6766 21.5428 14.5082 21.2047L14.5435 21.1276C14.601 20.9448 14.7381 20.8006 14.8746 20.6724Z" fill="#8F5124"/>
<path d="M14.8747 20.6724L14.9028 20.6587C15.4827 20.3818 16.1391 20.629 16.7337 20.7252C17.1009 20.7846 17.5218 20.8179 17.8915 20.7762C18.5146 20.706 19.2862 20.3748 19.9038 20.5815C20.0629 20.6347 20.1879 20.7182 20.3144 20.8249C20.3798 20.9351 20.4217 21.0492 20.4655 21.1689L20.4435 21.2129C20.3789 21.1756 20.3205 21.1235 20.2577 21.0824C20.134 21.0017 19.9956 20.9288 19.8488 20.9042C19.3016 20.8121 18.688 21.0818 18.1542 21.1879C17.9305 21.2323 17.7057 21.2495 17.4778 21.2475C17.1757 21.2446 16.8643 21.2072 16.5716 21.1317C16.1826 21.0314 15.796 20.8794 15.3885 20.8854C15.0814 20.8899 14.8664 21.0673 14.583 21.1208C14.5699 21.1233 14.5567 21.1254 14.5436 21.1276C14.601 20.9448 14.7382 20.8006 14.8747 20.6724Z" fill="#431A0F"/>
<path d="M14.1629 20.1818C14.1639 20.1742 14.1668 20.1666 14.1658 20.159C14.1562 20.0811 14.1512 20.1887 14.1504 20.0832C14.1483 19.8138 14.411 19.0324 14.4961 18.7172C14.7852 17.6472 15.2117 15.3737 16.0546 14.6332C16.3933 14.3356 17.04 14.0039 17.501 14.0304C18.1036 14.1458 18.6149 14.4021 18.9647 14.9224C19.2564 15.3562 19.3527 15.8586 19.5099 16.3471C19.6596 16.8125 19.931 17.232 20.0636 17.702C20.1654 18.063 20.113 18.4312 20.1787 18.7932C20.2623 19.2534 20.5154 19.8075 20.6815 20.2513L20.7119 20.2543C20.727 20.1955 20.7375 20.1364 20.7479 20.0766C20.759 20.1437 20.7853 20.2415 20.7767 20.3075C20.7515 20.5067 20.6871 21.0496 20.5257 21.1768C20.5199 21.1813 20.5129 21.1843 20.5066 21.188L20.4654 21.1689C20.4216 21.0492 20.3798 20.9351 20.3143 20.8249C20.1878 20.7182 20.0628 20.6347 19.9037 20.5815C19.2861 20.3748 18.5145 20.706 17.8914 20.7762C17.5217 20.8179 17.1008 20.7846 16.7337 20.7252C16.1391 20.629 15.4826 20.3818 14.9027 20.6587L14.8746 20.6724C14.7381 20.8005 14.601 20.9448 14.5435 21.1276L14.5082 21.2047C14.3379 20.8869 14.176 20.548 14.1629 20.1818Z" fill="#FEC570"/>
<path d="M14.1629 20.1818C14.1639 20.1742 14.1668 20.1666 14.1658 20.159C14.1562 20.0811 14.1512 20.1887 14.1504 20.0832C14.1483 19.8138 14.411 19.0324 14.4961 18.7172C14.7852 17.6472 15.2117 15.3737 16.0546 14.6332C16.3933 14.3356 17.04 14.0039 17.501 14.0304C18.1036 14.1458 18.6149 14.4021 18.9647 14.9224C19.2564 15.3562 19.3527 15.8586 19.5099 16.3471C19.6596 16.8125 19.931 17.232 20.0636 17.702C20.1654 18.063 20.113 18.4312 20.1787 18.7932C20.2623 19.2534 20.5154 19.8075 20.6815 20.2513L20.7119 20.2543C20.727 20.1955 20.7375 20.1364 20.7479 20.0766C20.759 20.1437 20.7853 20.2415 20.7767 20.3075C20.7515 20.5067 20.6871 21.0496 20.5257 21.1768C20.5199 21.1813 20.5129 21.1843 20.5066 21.188L20.4654 21.1689C20.4216 21.0492 20.3798 20.9351 20.3143 20.8249C20.4799 20.5405 19.7239 19.765 19.5449 19.531C19.4728 19.4367 19.4156 19.3355 19.365 19.2283C19.0991 18.6663 19.146 18.0285 19.102 17.4238C19.0753 17.0548 19.0245 16.6834 18.9377 16.3237C18.8117 15.8017 18.5471 15.1768 18.063 14.8916C17.7553 14.7103 17.3368 14.6688 16.9966 14.7708C16.734 14.8495 16.5014 15.0315 16.373 15.2756C16.0392 15.9102 15.5781 18.3616 15.6015 19.0821C15.612 19.4054 15.7108 19.7133 15.8052 20.0198C15.552 20.03 15.3095 20.0911 15.0895 20.219C14.9894 20.2771 14.8512 20.3764 14.8305 20.5002C14.8177 20.5775 14.8351 20.6077 14.8746 20.6724C14.7381 20.8005 14.601 20.9448 14.5435 21.1276L14.5082 21.2047C14.3379 20.8869 14.176 20.548 14.1629 20.1818Z" fill="#FEB34E"/>
<path d="M6.85305 3.61737C7.56812 3.79615 7.97162 4.41239 8.45122 4.91736C8.66658 5.22713 8.87805 5.53954 9.08564 5.85457C9.23248 6.08079 9.36946 6.32407 9.52978 6.54043C9.6559 6.40923 9.83017 6.29532 9.97663 6.18681C10.464 5.82582 10.966 5.5011 11.4816 5.1828C11.4871 5.17801 11.4924 5.17285 11.4982 5.16834C11.731 4.9866 12.088 4.85117 12.3615 4.73703C13.7835 4.14347 15.9433 3.60525 17.4782 3.7341C17.4788 4.043 17.4703 4.35462 17.4804 4.66318C17.4842 5.02018 17.4977 5.38329 17.4818 5.73977L17.4799 6.12002C17.4901 6.54616 17.5076 6.99151 17.4785 7.41657L17.4798 8.01163C17.4922 8.51824 17.5067 9.04035 17.4806 9.54611C17.481 9.71385 17.4952 9.89648 17.4602 10.0604L17.4837 10.0625C17.4905 10.3629 17.4318 10.648 17.4272 10.9443C17.4243 11.1239 17.4598 11.302 17.4821 11.4792C17.4827 11.4846 17.4817 11.49 17.4814 11.4955L17.4292 11.5334C17.4328 11.8387 17.3841 13.9032 17.4799 14.0134C17.4858 14.0202 17.494 14.0247 17.501 14.0304C17.0401 14.0039 16.3934 14.3356 16.0547 14.6332C15.2118 15.3737 14.7853 17.6472 14.4962 18.7172C14.411 19.0324 14.1483 19.8138 14.1504 20.0832C14.1513 20.1887 14.1563 20.0811 14.1659 20.159C14.1668 20.1666 14.1639 20.1742 14.163 20.1818L14.1309 20.1532C14.0294 20.2556 14.0072 20.6481 14.0069 20.793C14.0069 20.8004 14.0071 20.8077 14.0071 20.8151C13.1609 20.798 12.3594 20.9531 11.73 21.5579C11.4649 21.8126 11.2745 22.1262 11.1376 22.4658L11.1083 22.7007C11.1875 22.7004 11.2667 22.7011 11.3459 22.703C11.7692 22.7124 14.2816 22.8464 14.4589 23.0589C14.486 23.0915 14.4777 23.0833 14.4744 23.1286C14.4511 23.1467 14.4296 23.16 14.4005 23.167C14.1462 23.2283 12.464 23.0308 12.0781 23.013C11.7898 22.9997 11.486 22.9785 11.198 22.9967C11.0599 23.0055 10.9332 23.077 10.7947 23.0952C10.4803 23.1368 10.1443 23.1201 9.82684 23.1234C9.78141 22.7535 9.81382 22.3975 9.84788 22.0285C9.77695 22.0504 9.70485 22.074 9.63232 22.0899C9.26391 22.1702 8.90813 22.0443 8.6006 21.8478C7.53228 21.1655 7.0431 19.9187 6.78705 18.7315C6.46275 19.1577 6.37105 19.7228 6.13041 20.1927C5.49688 18.4651 5.69008 15.2326 5.93909 13.4247C5.97498 13.1642 6.02477 12.899 6.08564 12.6432C6.15009 12.3722 6.2578 12.0778 6.25743 11.7985C6.29876 11.5216 6.54998 11.1081 6.60968 10.7611C6.84351 10.1673 7.09895 9.58266 7.45252 9.04894C6.69583 8.63511 6.1988 8.09933 5.89207 7.28613C5.57636 6.44916 5.47344 5.45995 5.85303 4.62589C6.06042 4.17025 6.37641 3.79559 6.85305 3.61737Z" fill="#FA9A38"/>
<path d="M17.4603 10.0604L17.4837 10.0625C17.4905 10.3629 17.4319 10.648 17.4272 10.9443C17.4244 11.1239 17.4599 11.302 17.4821 11.4792C17.4828 11.4846 17.4817 11.4901 17.4815 11.4955L17.4293 11.5334C16.5595 11.5933 15.8342 11.9027 15.254 12.5651C15.0571 12.79 14.8789 13.0457 14.7528 13.3176C14.6888 13.4558 14.5989 13.8719 14.4769 13.9406L14.4701 13.9206C14.4715 12.9765 14.7484 12.0376 15.355 11.3043C15.8886 10.6593 16.6094 10.1386 17.4603 10.0604Z" fill="#502918"/>
<path d="M13.4612 10.7005C13.6223 10.4277 13.7733 10.1614 13.9757 9.91561C14.8163 8.89535 16.1571 8.13575 17.4798 8.0116C17.4922 8.5182 17.5067 9.04031 17.4806 9.54608C15.8695 9.58276 14.8488 9.88405 13.4612 10.7005Z" fill="#502918"/>
<path d="M17.4804 4.66327C17.4841 5.02027 17.4977 5.38337 17.4817 5.73985C15.2956 5.78062 12.9404 5.9083 10.9508 6.91573C10.6279 7.07925 10.3266 7.28659 10.0243 7.48468C10.0387 7.4579 10.0538 7.43672 10.0748 7.41464C10.4678 6.99986 10.9311 6.66588 11.4108 6.3591C13.2742 5.16753 15.2964 4.73833 17.4804 4.66327Z" fill="#502918"/>
<path d="M9.32597 13.5065C9.71284 13.6022 10.1062 13.5805 10.501 13.5678C10.4058 14.1673 10.4623 14.7374 10.8325 15.2396C11.1607 15.6846 11.6853 15.9645 12.2283 16.0419C12.72 16.1119 13.4808 15.8063 13.8296 16.2462C14.0007 16.4619 14.1268 16.7538 14.2289 17.0083C13.9372 16.979 13.6621 16.8854 13.366 16.8766C12.835 16.8609 12.3032 16.9409 11.7722 16.8973C11.7285 16.8939 11.6849 16.8893 11.6414 16.8837C11.5979 16.8781 11.5546 16.8714 11.5114 16.8636C11.4682 16.8559 11.4253 16.8471 11.3826 16.8372C11.3398 16.8273 11.2973 16.8164 11.2552 16.8044C11.213 16.7924 11.1711 16.7794 11.1296 16.7653C11.088 16.7513 11.0468 16.7363 11.006 16.7202C10.9652 16.7041 10.9248 16.687 10.8849 16.6689C10.8449 16.6509 10.8054 16.6318 10.7664 16.6118C10.7274 16.5918 10.6889 16.5709 10.6509 16.5489C10.6129 16.527 10.5755 16.5042 10.5386 16.4804C10.5018 16.4566 10.4655 16.432 10.4299 16.4064C10.3943 16.3809 10.3593 16.3544 10.3249 16.3271C10.2906 16.2998 10.257 16.2717 10.224 16.2428C10.1911 16.2139 10.1588 16.1841 10.1273 16.1536C10.0959 16.123 10.0652 16.0917 10.0352 16.0597C10.0053 16.0276 9.97616 15.9949 9.94785 15.9614C9.36393 15.2669 9.25279 14.3821 9.32597 13.5065Z" fill="#FBFBFB"/>
<path d="M11.5085 11.8552C11.0939 11.389 10.7909 10.7838 10.7779 10.1518C10.7632 9.43614 11.1064 8.78518 11.5979 8.28266C13.0581 6.78985 15.4364 6.13607 17.4799 6.12006C17.4901 6.5462 17.5076 6.99155 17.4785 7.41661C16.6542 7.37758 15.8542 7.35311 15.0383 7.51324C13.8167 7.75299 12.553 8.38675 11.8486 9.4469C11.3349 10.22 11.3276 10.9732 11.5085 11.8552Z" fill="#502918"/>
<path d="M9.53029 9.54285C9.53203 9.55816 9.53405 9.57343 9.5356 9.58879C9.55565 9.78941 9.4921 10.0115 9.48641 10.215C9.47185 10.738 9.74538 11.2883 10.1397 11.6244C10.7075 12.1086 11.478 12.1749 12.1517 12.4314C12.5616 12.5874 12.9409 12.7974 13.3391 12.9776C12.809 12.5574 12.2367 12.0717 12.1551 11.3563C12.0983 10.8593 12.3198 10.5026 12.5791 10.109C12.6936 10.9512 12.877 11.6737 13.5295 12.2688C13.6385 12.0512 13.7419 11.8208 13.8773 11.6185C13.932 12.3994 14.1294 13.2105 14.47 13.9206L14.4769 13.9405C14.5581 14.3985 14.7983 16.1505 14.5761 16.5223C14.5067 16.0703 14.4346 15.6257 14.2831 15.192C13.8172 13.8577 12.8742 13.0605 11.4307 13.0831C10.9186 13.0911 10.3493 13.2107 9.87075 12.9685C9.53691 12.7996 9.33624 12.486 9.22308 12.1404C8.9341 11.2577 9.12613 10.3522 9.53029 9.54285Z" fill="#FBFBFB"/>
<path d="M6.85305 3.61737C7.56812 3.79615 7.97162 4.41239 8.45122 4.91736C8.66658 5.22713 8.87805 5.53953 9.08564 5.85457C9.23248 6.08079 9.36946 6.32407 9.52978 6.54043C9.47134 6.61497 9.39816 6.6688 9.32422 6.72682C8.4857 6.32327 7.59217 6.09808 6.68916 5.89126C7.00223 6.11006 8.67481 7.1181 8.7705 7.28763C8.74222 7.34362 8.71451 7.3549 8.65687 7.37425C8.29311 7.49633 6.78395 7.43809 6.29876 7.4333C6.87245 7.67836 7.4312 7.93887 7.98886 8.21799C7.83155 8.47794 7.66409 8.83244 7.45252 9.04894C6.69583 8.63511 6.1988 8.09933 5.89207 7.28613C5.57636 6.44916 5.47344 5.45995 5.85303 4.62589C6.06042 4.17025 6.37641 3.79559 6.85305 3.61737Z" fill="#FBFBFB"/>
<path d="M10.7875 7.82471C10.2412 8.2788 9.78347 8.87696 9.53028 9.5429C9.12612 10.3522 8.93409 11.2577 9.22307 12.1404C9.33623 12.486 9.5369 12.7996 9.87074 12.9685C10.3493 13.2107 10.9186 13.0912 11.4307 13.0832C12.8742 13.0606 13.8172 13.8577 14.2831 15.192C14.4346 15.6257 14.5067 16.0704 14.5761 16.5224C14.6339 16.9974 14.5808 17.5306 14.524 18.0047C14.4661 17.6628 14.3965 17.3153 14.2288 17.0083C14.1268 16.7538 14.0007 16.4619 13.8296 16.2462C13.4808 15.8063 12.72 16.1119 12.2282 16.0418C11.6853 15.9645 11.1606 15.6846 10.8325 15.2396C10.4623 14.7374 10.4058 14.1673 10.5009 13.5678C10.1061 13.5805 9.71282 13.6021 9.32595 13.5065C9.2941 13.498 9.26352 13.4893 9.23238 13.4785C8.67114 13.2844 8.22034 12.935 7.96217 12.3929C7.69649 11.8351 7.73209 11.1737 7.93986 10.6039C8.42955 9.2612 9.53658 8.40765 10.7875 7.82471Z" fill="url(#paint1_linear_51_543)"/>
<path d="M11.9787 13.5422C12.0903 13.5856 12.1914 13.6541 12.2413 13.7675C12.245 13.7759 12.2483 13.7845 12.2511 13.7932C12.2539 13.8019 12.2562 13.8108 12.2581 13.8197C12.26 13.8287 12.2614 13.8377 12.2624 13.8468C12.2634 13.856 12.2639 13.8651 12.2639 13.8742C12.2639 13.8834 12.2635 13.8926 12.2626 13.9017C12.2617 13.9108 12.2603 13.9198 12.2585 13.9288C12.2566 13.9378 12.2544 13.9467 12.2516 13.9554C12.2489 13.9641 12.2457 13.9727 12.2421 13.9811C12.1989 14.0823 12.1229 14.1184 12.0242 14.154C12.0158 14.157 12.0072 14.1599 11.9987 14.1629C11.9804 14.1543 11.9623 14.1453 11.9438 14.1371C11.8725 14.1055 11.8131 14.0829 11.7636 14.0188C11.7218 13.9646 11.7042 13.9086 11.7144 13.8396C11.7339 13.7066 11.8781 13.6122 11.9787 13.5422Z" fill="#FBFBFB"/>
<path d="M11.2418 13.5164C11.4883 13.5153 11.7335 13.5153 11.9788 13.5422C11.8782 13.6121 11.734 13.7066 11.7144 13.8396C11.7043 13.9086 11.7219 13.9646 11.7637 14.0187C11.8132 14.0829 11.8726 14.1055 11.9439 14.1371C11.9624 14.1453 11.9805 14.1543 11.9988 14.1629C12.0389 14.3408 12.0434 14.5669 12.2085 14.6837C12.3409 14.7775 12.4981 14.754 12.6476 14.7306C12.699 14.6944 12.7484 14.6555 12.7957 14.614C12.9957 14.4372 13.0043 14.2078 13.0201 13.9603C13.2826 14.2333 13.5119 14.5125 13.6875 14.8506C13.5683 15.1308 13.3986 15.3774 13.131 15.5355C12.8562 15.6979 12.5315 15.7179 12.2275 15.6342C12.2034 15.6273 12.1795 15.6198 12.1558 15.6117C12.132 15.6037 12.1085 15.5951 12.0852 15.5859C12.0619 15.5766 12.0389 15.5668 12.0161 15.5565C11.9932 15.5461 11.9707 15.5352 11.9484 15.5237C11.9262 15.5122 11.9042 15.5002 11.8825 15.4876C11.8608 15.4751 11.8395 15.462 11.8184 15.4483C11.7974 15.4347 11.7768 15.4206 11.7564 15.4059C11.7361 15.3913 11.7162 15.3761 11.6966 15.3605C11.677 15.3448 11.6578 15.3287 11.639 15.3121C11.6203 15.2955 11.6019 15.2785 11.584 15.261C11.5661 15.2434 11.5486 15.2255 11.5316 15.2072C11.5145 15.1888 11.4979 15.17 11.4818 15.1508C11.4657 15.1316 11.4501 15.112 11.435 15.0921C11.4198 15.0721 11.4052 15.0518 11.3911 15.0311C11.3769 15.0104 11.3633 14.9894 11.3503 14.968C11.3372 14.9466 11.3246 14.925 11.3126 14.903C11.057 14.439 11.0964 14.0076 11.2418 13.5164Z" fill="#FA9A38"/>
<path d="M7.39411 13.3885C7.34474 14.6395 7.78253 15.9819 8.64228 16.9064C9.12291 17.4232 9.79792 17.8369 10.5191 17.8605C10.8509 17.8713 11.1598 17.7876 11.4708 17.6804C10.7522 18.1995 9.97247 18.6634 9.04963 18.5102C8.47538 18.4148 8.00683 18.0801 7.67346 17.6091C7.56011 17.449 7.46687 17.2741 7.37842 17.0992C7.60619 18.2952 7.92021 19.5274 8.98908 20.2534C9.3505 20.4988 9.8751 20.7159 10.3179 20.6203C10.4903 20.583 10.6404 20.4984 10.7737 20.3844C11.0235 20.1706 11.2198 19.8697 11.4421 19.6258C11.8041 19.2285 12.1999 18.865 12.6048 18.5122C12.7022 18.4273 12.8639 18.2459 12.9931 18.2298L12.9737 18.2422L12.9553 18.284L12.9547 18.2575C12.7566 18.4962 12.5488 18.728 12.3653 18.9785C11.6113 20.0078 11.1626 21.1845 11.1376 22.4658L11.1082 22.7007C11.1874 22.7004 11.2666 22.7012 11.3458 22.703C11.7692 22.7124 14.2815 22.8465 14.4588 23.059C14.486 23.0915 14.4776 23.0833 14.4743 23.1286C14.4511 23.1468 14.4295 23.16 14.4005 23.167C14.1461 23.2284 12.4639 23.0309 12.0781 23.013C11.7897 22.9997 11.4859 22.9785 11.198 22.9968C11.0599 23.0056 10.9331 23.077 10.7946 23.0953C10.4803 23.1368 10.1443 23.1201 9.82676 23.1234C9.78134 22.7535 9.81375 22.3976 9.8478 22.0285C9.77687 22.0504 9.70477 22.0741 9.63224 22.0899C9.26383 22.1702 8.90806 22.0443 8.60052 21.8479C7.53221 21.1655 7.04303 19.9188 6.78698 18.7316C6.59269 17.0689 6.62496 14.9112 7.39411 13.3885Z" fill="#502918"/>
<path d="M26.7026 3.1375C27.4041 2.81404 28.7533 2.3189 29.4927 2.59787C29.868 2.73949 30.0554 3.0871 30.2064 3.43451C30.21 3.44264 30.2133 3.45091 30.2167 3.45908L30.2198 3.48026C30.2779 3.8507 30.4116 4.20797 30.4706 4.5808C30.73 6.21933 30.4416 7.84338 29.4637 9.20753C29.3307 9.3948 29.188 9.57433 29.0356 9.74613C28.9206 9.87432 28.7787 10.0019 28.6814 10.1426C28.5449 10.2707 28.3928 10.3803 28.2579 10.5091C28.4078 10.8745 28.5276 11.2544 28.6875 11.6147C28.6879 11.622 28.6882 11.6292 28.6887 11.6364C28.7064 11.8905 28.8059 12.1522 28.8719 12.3981C28.9556 12.7099 29.0306 13.0309 29.087 13.3488C29.4758 15.5396 29.6498 18.0572 28.8788 20.1899C28.6162 19.8677 28.438 19.4792 28.155 19.1726C27.8236 20.2728 27.2493 21.5589 26.1901 22.1345C25.8351 22.3275 25.5164 22.3338 25.1345 22.2183C25.1712 22.513 25.1818 22.8076 25.18 23.1044C24.8919 23.1048 24.5522 23.1382 24.2699 23.0964C24.066 23.0662 24.0746 22.998 23.7865 23.0034C23.1828 23.0107 22.5801 23.0388 21.9783 23.0876C21.6082 23.1155 21.2353 23.1673 20.8644 23.1744C20.7432 23.1767 20.631 23.173 20.5149 23.1338L20.479 23.0963C20.4956 23.0475 20.5105 23.023 20.5581 22.9982C20.8075 22.8682 23.5862 22.6338 24.0078 22.6175C23.9205 22.3526 23.7914 22.111 23.686 21.8541C23.4419 21.544 23.1692 21.2914 22.8186 21.1052C22.1958 20.7745 21.5464 20.8151 20.8873 21.0163C20.8809 20.7937 20.879 20.5093 20.7767 20.3075C20.7853 20.2416 20.759 20.1437 20.7479 20.0766C20.7374 20.1364 20.727 20.1955 20.7118 20.2544L20.6815 20.2513C20.5154 19.8076 20.2623 19.2535 20.1787 18.7933C20.1129 18.4313 20.1654 18.0631 20.0636 17.702C19.931 17.2321 19.6596 16.8125 19.5098 16.3472C19.3526 15.8586 19.2563 15.3562 18.9647 14.9225C18.6149 14.4021 18.1036 14.1459 17.5009 14.0305C17.4939 14.0248 17.4858 14.0202 17.4798 14.0134C17.3841 13.9033 17.4327 11.8388 17.4292 11.5334L17.4814 11.4955C17.4816 11.4901 17.4827 11.4846 17.482 11.4792C17.4597 11.302 17.4243 11.124 17.4271 10.9443C17.4317 10.648 17.4904 10.3629 17.4836 10.0625L17.4602 10.0604C17.4952 9.89654 17.4809 9.71391 17.4806 9.54617C17.5067 9.0404 17.4921 8.51829 17.4798 8.01169L17.4784 7.41663C17.5075 6.99157 17.49 6.54621 17.4798 6.12007L17.4817 5.73982C17.4977 5.38334 17.4841 5.02024 17.4804 4.66324C17.4703 4.35467 17.4787 4.04305 17.4782 3.73415C17.891 3.77714 18.3052 3.76271 18.7176 3.80274C19.8747 3.91505 20.9782 4.18486 22.0732 4.57047C22.4392 4.69936 22.8019 4.87006 23.149 5.04255C23.2903 5.11278 23.4802 5.24515 23.6264 5.28451C24.275 4.6522 25.8392 3.38265 26.7026 3.1375Z" fill="#FC6F01"/>
<path d="M20.4622 17.0396C20.5665 17.062 20.8038 17.056 20.88 17.1131C20.764 17.5113 20.702 17.8995 20.6463 18.3091C20.5965 17.8843 20.5056 17.4644 20.4622 17.0396Z" fill="black"/>
<path d="M26.2323 9.30371C26.7184 9.73164 27.0713 10.5206 27.112 11.164C27.1479 11.7311 26.9911 12.3456 26.6048 12.7743C26.5317 12.8555 26.4374 12.9546 26.343 13.0095L26.3222 12.9971L26.2506 13.0214L26.2491 12.9786C26.2618 12.9633 26.2835 12.9394 26.2935 12.9203C26.4784 12.5682 26.2944 11.7099 26.2789 11.3261C26.2571 10.7873 26.3327 10.2422 26.2557 9.70317C26.2381 9.58043 26.2 9.46041 26.1738 9.33922L26.2323 9.30371Z" fill="#431A0F"/>
<path d="M17.4837 10.0625C18.2689 10.1162 18.9655 10.5937 19.469 11.1723C20.092 11.8882 20.3957 12.7797 20.3735 13.7244C19.8479 12.7362 19.4907 12.0009 18.3344 11.6542C18.0782 11.5774 17.702 11.6014 17.4814 11.4955C17.4817 11.49 17.4827 11.4846 17.4821 11.4792C17.4598 11.302 17.4243 11.1239 17.4272 10.9443C17.4318 10.648 17.4905 10.3629 17.4837 10.0625Z" fill="#431A0F"/>
<path d="M17.4797 8.0116C18.9485 8.22105 20.3039 8.95285 21.2003 10.154C21.3187 10.311 21.425 10.4758 21.5193 10.6484C20.2032 9.82359 19.003 9.58732 17.4805 9.54608C17.5067 9.04031 17.4921 8.5182 17.4797 8.0116Z" fill="#431A0F"/>
<path d="M17.4803 4.66327C19.7689 4.73631 21.7095 5.22516 23.6463 6.48593C24.0841 6.77092 24.5397 7.08681 24.9155 7.45095C24.4755 7.21247 24.0345 6.96675 23.5743 6.76875C22.218 6.18525 20.7443 5.92709 19.279 5.82257C18.9344 5.79627 18.5894 5.77744 18.244 5.76611C17.9932 5.75906 17.7302 5.76926 17.4817 5.73985C17.4976 5.38337 17.4841 5.02027 17.4803 4.66327Z" fill="#431A0F"/>
<path d="M17.4798 6.12008C19.4162 6.11125 21.7392 6.77193 23.1371 8.15783C23.7232 8.73889 24.0882 9.44983 24.0864 10.2856C24.0857 10.636 24.026 10.9691 23.9508 11.3102C23.7136 10.0313 23.1712 9.1718 22.0888 8.43136C21.0756 7.73836 19.8871 7.39475 18.663 7.38775C18.2676 7.3855 17.8741 7.42862 17.4784 7.41664C17.5075 6.99158 17.49 6.54622 17.4798 6.12008Z" fill="#431A0F"/>
<path d="M25.4426 9.54517C25.7997 10.3416 26.0242 11.2628 25.7059 12.1119C25.5738 12.4644 25.3354 12.7724 24.9821 12.9249C24.4719 13.1452 23.9228 12.98 23.3932 12.9609C22.1484 12.916 21.2734 13.8258 20.8246 14.9071C20.613 15.4167 20.4732 16.0208 20.4537 16.5746C20.3668 16.4433 20.35 16.2578 20.3336 16.1033C20.2322 15.1535 20.4769 14.2469 20.6337 13.32C20.6942 12.9549 20.7416 12.588 20.7759 12.2195C20.8097 11.8149 20.7792 11.429 20.7169 11.0299C21.0735 11.4068 21.3106 11.7547 21.5049 12.2386C21.7939 12.0486 22.0371 11.7282 22.2078 11.4315C22.5354 10.8622 22.5887 10.2331 22.4156 9.60407C22.4401 9.62856 22.4639 9.65363 22.4871 9.67928C22.8201 10.0427 23.0098 10.4748 22.9859 10.9731C22.9481 11.7608 22.458 12.301 21.9069 12.8069C22.2203 12.6584 22.5366 12.5178 22.8665 12.4092C23.5345 12.1893 24.2679 12.0759 24.8081 11.5871C25.1812 11.2495 25.4007 10.754 25.434 10.2546C25.4497 10.0187 25.4291 9.78144 25.4426 9.54517Z" fill="#FBFBFB"/>
<path d="M23.9241 7.87549C24.749 8.21398 25.6381 8.61865 26.2323 9.30376L26.1738 9.33927C26.2 9.46046 26.2381 9.58048 26.2557 9.70322C26.3327 10.2423 26.2571 10.7874 26.2789 11.3261C26.2944 11.7099 26.4784 12.5682 26.2935 12.9203C26.2835 12.9394 26.2618 12.9634 26.2491 12.9787L26.2506 13.0215L26.3222 12.9971L26.343 13.0095C26.1665 13.1625 25.9588 13.2661 25.7511 13.3697C25.6478 14.367 25.2875 15.3397 24.4906 15.9908C23.9109 16.4644 23.1585 16.771 22.4082 16.8026C22.082 16.8164 21.7536 16.7888 21.4283 16.8054C21.2719 16.8133 21.1316 16.8886 20.9772 16.9016C20.9443 16.9713 20.9077 17.0413 20.88 17.1131C20.8038 17.056 20.5665 17.062 20.4621 17.0396C20.4641 16.8838 20.4622 16.7301 20.4536 16.5746C20.4731 16.0209 20.613 15.4168 20.8245 14.9072C21.2733 13.8258 22.1484 12.916 23.3931 12.9609C23.9228 12.98 24.4718 13.1452 24.982 12.9249C25.3354 12.7724 25.5737 12.4645 25.7059 12.1119C26.0242 11.2629 25.7997 10.3417 25.4425 9.5452C25.1581 8.82233 24.5177 8.33625 23.9241 7.87549Z" fill="url(#paint2_linear_51_543)"/>
<path d="M23.1236 13.2882C23.1933 13.2815 23.2575 13.2841 23.325 13.3057C23.5445 13.3758 23.714 13.5969 23.8181 13.7941C23.8287 13.8141 23.8388 13.8343 23.8484 13.8548C23.858 13.8752 23.8671 13.8959 23.8756 13.9168C23.8842 13.9377 23.8923 13.9588 23.8998 13.9801C23.9073 14.0014 23.9143 14.0229 23.9208 14.0446C23.9272 14.0662 23.9332 14.088 23.9386 14.11C23.944 14.1319 23.9488 14.154 23.9531 14.1762C23.9574 14.1984 23.9612 14.2206 23.9644 14.243C23.9675 14.2654 23.9702 14.2878 23.9723 14.3103C23.9744 14.3328 23.9759 14.3553 23.9769 14.3779C23.9779 14.4005 23.9783 14.4231 23.9782 14.4457C23.978 14.4683 23.9774 14.4908 23.9761 14.5134C23.9748 14.536 23.973 14.5585 23.9707 14.581C23.9683 14.6034 23.9654 14.6258 23.9619 14.6481C23.9585 14.6705 23.9545 14.6927 23.9499 14.7148C23.9453 14.737 23.9402 14.759 23.9345 14.7808C23.9289 14.8027 23.9227 14.8245 23.916 14.846C23.9093 14.8674 23.9021 14.8886 23.8944 14.9097C23.8867 14.9307 23.8784 14.9515 23.8697 14.9721C23.8609 14.9928 23.8516 15.0131 23.8418 15.0333C23.832 15.0534 23.8217 15.0733 23.8109 15.0929C23.8001 15.1126 23.7888 15.1319 23.7771 15.151C23.7653 15.1701 23.7531 15.1888 23.7404 15.2073C23.7277 15.2257 23.7145 15.2438 23.7009 15.2616C23.6873 15.2794 23.6732 15.2968 23.6587 15.3139C23.6442 15.331 23.6293 15.3477 23.614 15.3641C23.5987 15.3804 23.5829 15.3963 23.5668 15.4119C23.5507 15.4274 23.5342 15.4425 23.5173 15.4573C23.5004 15.472 23.4831 15.4863 23.4655 15.5001C23.4479 15.514 23.43 15.5274 23.4117 15.5403C23.3934 15.5533 23.3748 15.5658 23.3559 15.5777C23.337 15.5898 23.3178 15.6013 23.2983 15.6124C23.2788 15.6234 23.2591 15.634 23.2391 15.644C22.9056 15.8107 22.4852 15.8508 22.1311 15.7284C21.7477 15.596 21.5149 15.3176 21.3417 14.9663C21.2973 14.8497 21.2727 14.7588 21.2927 14.6338C21.3427 14.3204 21.6686 13.9706 21.9207 13.7874C21.9847 13.7409 22.0257 13.717 22.1045 13.7293C22.2292 13.8909 22.0711 14.2966 22.1493 14.5192C22.1904 14.6361 22.2758 14.7348 22.3904 14.7848C22.4869 14.8269 22.6039 14.818 22.6987 14.776C22.8086 14.7272 22.9143 14.6057 22.9553 14.4936C23.0889 14.1292 22.6306 13.8014 22.4943 13.4938L22.4807 13.4625C22.6878 13.3759 22.9044 13.3322 23.1236 13.2882Z" fill="#FA9A38"/>
<path d="M24.6087 13.5658C24.9941 13.5631 25.3842 13.4825 25.7512 13.3697C25.6479 14.367 25.2875 15.3397 24.4906 15.9908C23.911 16.4644 23.1586 16.771 22.4083 16.8026C22.0821 16.8164 21.7537 16.7888 21.4283 16.8053C21.272 16.8133 21.1317 16.8886 20.9773 16.9016C21.1386 16.483 21.3458 16.1938 21.7332 15.9618C21.9539 16.0087 22.1613 16.0831 22.3883 16.1033C22.8969 16.1484 23.4097 15.9661 23.7944 15.6355C24.4125 15.1043 24.5471 14.3394 24.6087 13.5658Z" fill="#FBFBFB"/>
<path d="M22.4015 17.0736C22.9755 17.4176 23.7333 17.5723 24.3981 17.5913C25.1592 17.613 25.8932 17.3562 26.4462 16.826C27.153 16.1484 27.4247 15.1876 27.4613 14.2336C27.472 13.9551 27.4421 13.6761 27.4488 13.3976C28.1502 14.9081 28.4954 16.4736 28.3205 18.1438C28.2843 18.4901 28.2149 18.8301 28.155 19.1726C27.8236 20.2727 27.2493 21.5589 26.1901 22.1345C25.8351 22.3274 25.5164 22.3337 25.1345 22.2182C25.1712 22.5129 25.1818 22.8076 25.18 23.1043C24.8919 23.1048 24.5522 23.1382 24.2699 23.0964C24.066 23.0662 24.0746 22.998 23.7865 23.0034C23.1828 23.0107 22.5801 23.0387 21.9783 23.0876C21.6082 23.1155 21.2353 23.1672 20.8644 23.1743C20.7432 23.1766 20.631 23.173 20.5149 23.1338L20.479 23.0963C20.4956 23.0475 20.5105 23.0229 20.5581 22.9982C20.8075 22.8682 23.5862 22.6338 24.0078 22.6175C23.9205 22.3525 23.7914 22.111 23.686 21.8541C23.5744 20.8508 22.9787 19.8822 22.4537 19.0396C23.0836 19.6854 24.1082 20.662 25.0169 20.7841C25.3699 20.8315 25.6917 20.7001 25.9675 20.4888C26.9723 19.7189 27.5398 18.2904 27.7059 17.0676C27.5251 17.4283 27.3385 17.8023 27.032 18.0747C27.004 18.0994 26.9754 18.1233 26.9462 18.1465C26.9169 18.1697 26.8871 18.1922 26.8568 18.2139C26.8264 18.2357 26.7955 18.2566 26.7641 18.2768C26.7327 18.297 26.7008 18.3163 26.6684 18.3349C26.6361 18.3535 26.6033 18.3712 26.57 18.3882C26.5367 18.4051 26.5031 18.4212 26.469 18.4365C26.4349 18.4517 26.4005 18.4661 26.3657 18.4796C26.3309 18.4931 26.2958 18.5058 26.2604 18.5175C26.225 18.5293 26.1893 18.5402 26.1533 18.5501C26.1173 18.5601 26.0812 18.5692 26.0447 18.5773C26.0083 18.5855 25.9717 18.5928 25.9349 18.5991C25.8981 18.6054 25.8612 18.6108 25.8241 18.6153C25.7871 18.6198 25.7499 18.6233 25.7127 18.6259C25.6754 18.6285 25.6382 18.6302 25.6009 18.6309C25.5636 18.6317 25.5262 18.6315 25.4889 18.6304C25.4516 18.6292 25.4144 18.6272 25.3771 18.6242C24.391 18.553 23.0503 17.8275 22.4015 17.0736Z" fill="#431A0F"/>
<path d="M26.7026 3.1375C27.4041 2.81404 28.7532 2.3189 29.4927 2.59787C29.868 2.73949 30.0554 3.0871 30.2064 3.43451C30.21 3.44264 30.2133 3.45091 30.2167 3.45908L30.2198 3.48026C30.2779 3.8507 30.4116 4.20797 30.4706 4.5808C30.73 6.21933 30.4416 7.84338 29.4637 9.20753C29.3307 9.3948 29.188 9.57433 29.0356 9.74613C28.9206 9.87432 28.7787 10.0019 28.6814 10.1426C28.5449 10.2707 28.3928 10.3803 28.2579 10.5091C28.0611 10.0064 27.7996 9.49116 27.4876 9.05116C27.2836 8.81812 27.1213 8.54986 26.9522 8.29137C27.4538 8.00516 27.969 7.78673 28.4903 7.542C27.709 7.46238 26.9326 7.44542 26.151 7.34269C26.7758 6.77375 27.4263 6.22736 28.0662 5.67542L26.5946 6.21477C26.199 6.35963 25.806 6.52212 25.39 6.59826C24.7964 6.13506 24.2777 5.6804 23.6263 5.28451C24.275 4.6522 25.8392 3.38265 26.7026 3.1375Z" fill="#FBFBFB"/>
<path d="M26.7026 3.13739C26.9076 3.17506 27.1119 3.20489 27.3157 3.25031C27.4685 3.28432 27.6334 3.33994 27.7868 3.35924C27.3236 3.91372 26.8903 4.49149 26.4561 5.0686C26.081 5.56727 25.7003 6.05486 25.39 6.59815C24.7964 6.13495 24.2777 5.68029 23.6263 5.2844C24.275 4.65209 25.8392 3.38254 26.7026 3.13739Z" fill="#431A0F"/>
<path d="M26.7026 3.1375C27.4042 2.81404 28.7533 2.3189 29.4927 2.59787C29.8681 2.73949 30.0555 3.0871 30.2065 3.43451C30.21 3.44264 30.2133 3.45091 30.2168 3.45908L30.2199 3.48026C30.2779 3.8507 30.4116 4.20797 30.4707 4.5808C30.73 6.21933 30.4417 7.84338 29.4638 9.20753C29.3308 9.3948 29.1881 9.57433 29.0356 9.74613C28.9207 9.87432 28.7788 10.0019 28.6815 10.1426C28.5449 10.2707 28.3928 10.3803 28.258 10.5091C28.0612 10.0064 27.7997 9.49116 27.4877 9.05116C28.1742 8.56949 28.6402 8.29559 29.0289 7.51067C29.4224 6.71607 29.5888 5.71215 29.2976 4.85818C29.0342 4.08575 28.4926 3.70372 27.7869 3.35935C27.6335 3.34005 27.4685 3.28443 27.3158 3.25042C27.112 3.205 26.9077 3.17517 26.7026 3.1375Z" fill="#8F5124"/>
<path d="M30.2168 3.45911C30.6085 3.66194 31.4228 4.66144 31.7782 5.03567C32.5237 5.80895 33.2593 6.59152 33.985 7.3834C34.2905 7.71945 34.6259 8.05643 34.9 8.41747C34.8976 8.17607 34.8834 7.92791 34.9088 7.68774C34.9369 8.23235 34.9207 8.78471 34.921 9.33012L34.9222 12.1551L34.9236 20.8277L34.9249 26.1152C34.9254 27.226 35.0079 28.3891 34.8177 29.4861C34.8045 29.5613 34.7901 29.6363 34.7743 29.711C34.7586 29.7856 34.7415 29.86 34.7232 29.9341C34.7048 30.0082 34.6852 30.082 34.6642 30.1554C34.6433 30.2288 34.6211 30.3018 34.5976 30.3744C34.5741 30.4471 34.5494 30.5193 34.5234 30.591C34.4974 30.6628 34.4701 30.7341 34.4416 30.8049C34.4131 30.8757 34.3834 30.946 34.3525 31.0158C34.3215 31.0855 34.2893 31.1548 34.256 31.2234C34.2226 31.2921 34.188 31.3601 34.1523 31.4275C34.1166 31.495 34.0796 31.5618 34.0415 31.6279C34.0035 31.6941 33.9642 31.7596 33.9239 31.8244C33.8835 31.8892 33.842 31.9532 33.7994 32.0165C33.7568 32.0799 33.7131 32.1425 33.6683 32.2042C33.6236 32.2661 33.5777 32.3271 33.5308 32.3873C33.4839 32.4475 33.4359 32.5068 33.3869 32.5654C33.3379 32.6239 33.2879 32.6816 33.2369 32.7384C33.1763 32.8066 33.1144 32.8736 33.051 32.9392C32.9877 33.0049 32.923 33.0692 32.857 33.1322C32.791 33.1952 32.7237 33.2568 32.6551 33.317C32.5866 33.3772 32.5168 33.4359 32.4458 33.4932C32.3748 33.5505 32.3026 33.6064 32.2293 33.6607C32.156 33.715 32.0816 33.7677 32.0061 33.819C31.9306 33.8702 31.854 33.9198 31.7764 33.9679C31.6989 34.0159 31.6204 34.0623 31.5409 34.1071C31.4614 34.1519 31.381 34.195 31.2998 34.2365C31.2185 34.2779 31.1364 34.3177 31.0534 34.3557C30.9705 34.3938 30.8868 34.4301 30.8024 34.4647C30.718 34.4993 30.6329 34.5321 30.5471 34.5631C30.4613 34.5942 30.3749 34.6234 30.2879 34.6509C30.2009 34.6784 30.1133 34.704 30.0252 34.7278C29.9372 34.7517 29.8486 34.7737 29.7596 34.7939C29.6707 34.814 29.5813 34.8323 29.4916 34.8488C29.0606 34.9263 28.6259 34.952 28.1892 34.9734C27.0914 35.027 25.9704 34.9833 24.8699 34.9827L18.6789 34.9817L14.3174 34.9723C13.9359 34.9701 13.5544 34.9702 13.1729 34.9726C12.8652 34.9758 12.5491 34.9923 12.2423 34.9625C12.1836 34.7949 12.0161 34.6477 11.8942 34.5226C11.4976 34.1155 11.0765 33.7357 10.6726 33.3361C9.46645 32.1249 8.25078 30.9234 7.02559 29.7315L5.03486 27.7358C4.69708 27.3959 4.37371 27.0311 4.01282 26.7164C4.21283 26.0251 4.43623 25.3774 4.87905 24.7975C5.00799 26.6497 5.9446 27.9705 7.13203 29.3026C6.69467 28.1921 6.67752 27.5184 6.78152 26.3501C7.08671 26.8725 7.40537 27.3598 7.8069 27.8136C8.97081 29.129 10.7796 30.1747 12.4713 30.6292C12.6259 30.6708 12.8265 30.7253 12.9866 30.7057C13.3622 31.1051 13.6963 31.5156 14.1213 31.8681C14.8652 32.485 15.726 32.8619 16.6424 33.1374C16.896 33.2137 17.165 33.2999 17.4315 33.309C17.7557 33.32 18.0868 33.1965 18.3905 33.0956C19.3935 32.7624 20.3651 32.3229 21.1312 31.5736C21.4069 31.304 21.629 31.0014 21.8764 30.7084C22.0163 30.7008 22.1697 30.6532 22.3053 30.6171C24.6093 30.0037 26.8593 28.6798 28.0869 26.5847C28.3411 27.53 28.1624 28.37 27.8771 29.2818C29.1051 27.6844 29.7259 26.7327 29.8469 24.6283C30.3695 25.2194 30.5145 25.9226 30.7419 26.6487C31.2507 25.0669 31.2356 24.1303 30.6144 22.5789C31.6929 23.3065 32.1639 24.0167 32.5826 25.2267C32.5957 25.1821 32.6073 25.137 32.6173 25.0916C32.7471 24.501 32.7649 23.8623 32.7242 23.2605C32.6061 21.514 32.0397 20.2594 31.1053 18.8143C31.9653 19.0925 32.689 19.5551 33.2322 20.287C33.3781 20.4835 33.5004 20.6967 33.6329 20.9022C33.577 20.55 33.5303 20.1969 33.4411 19.8511C33.1211 18.6106 32.4011 17.5694 31.7166 16.5074C31.4384 16.0757 31.1233 15.6407 30.9081 15.1744C30.7191 14.7649 30.6879 14.3207 30.5554 13.8954C30.1455 12.5793 29.5532 11.2207 28.6815 10.1426C28.7788 10.0019 28.9207 9.87435 29.0357 9.74616C29.1881 9.57436 29.3308 9.39483 29.4638 9.20756C30.4417 7.84341 30.7301 6.21935 30.4707 4.58083C30.4117 4.208 30.278 3.85072 30.2199 3.48029L30.2168 3.45911Z" fill="url(#paint3_linear_51_543)"/>
<defs>
<linearGradient id="paint0_linear_51_543" x1="23.4921" y1="28.8269" x2="7.44586" y2="-1.2024" gradientUnits="userSpaceOnUse">
<stop stop-color="#EB5F00"/>
<stop offset="1" stop-color="#EC9B40"/>
</linearGradient>
<linearGradient id="paint1_linear_51_543" x1="15.8721" y1="14.172" x2="7.82579" y2="10.9525" gradientUnits="userSpaceOnUse">
<stop stop-color="#270C02"/>
<stop offset="1" stop-color="#562C1B"/>
</linearGradient>
<linearGradient id="paint2_linear_51_543" x1="20.4523" y1="12.5586" x2="26.3568" y2="12.5132" gradientUnits="userSpaceOnUse">
<stop/>
<stop offset="1" stop-color="#491C10"/>
</linearGradient>
<linearGradient id="paint3_linear_51_543" x1="34.77" y1="30.8729" x2="14.6916" y2="13.5122" gradientUnits="userSpaceOnUse">
<stop stop-color="#BF5113"/>
<stop offset="1" stop-color="#CD6B23"/>
</linearGradient>
</defs>
</svg>
