<svg width="116" height="60" fill="none" xmlns="http://www.w3.org/2000/svg"><rect x="14.5" y="13.5" width="36" height="36" rx="2.5" stroke="#fff" stroke-dasharray="2 2"/><path d="m33.602 32.483 6.218-6.2a.747.747 0 0 0-.541-1.235.75.75 0 0 0-.517.18l-6.217 6.2-6.218-6.208a.754.754 0 0 0-1.285.531c0 .2.079.39.22.531l6.225 6.201-6.225 6.2a.746.746 0 0 0 .214 1.266.752.752 0 0 0 .844-.21l6.225-6.201 6.217 6.2A.75.75 0 0 0 40 39.2a.747.747 0 0 0-.18-.515l-6.217-6.201Z" fill="#F02D2D"/><rect x="64.5" y="13.5" width="36" height="36" rx="2.5" stroke="#fff" stroke-dasharray="2 2"/><path d="M74.5 31.5 80 37l11.5-11" stroke="#519A58" stroke-width="1.5" stroke-linecap="round"/></svg>