<svg width="116" height="66" fill="none" xmlns="http://www.w3.org/2000/svg"><circle cx="43" cy="21" r="11.5" stroke="#fff" stroke-dasharray="2 2"/><circle cx="43" cy="48" r="11.5" stroke="#fff" stroke-dasharray="2 2"/><circle cx="70" cy="21" r="11.5" stroke="#fff" stroke-dasharray="2 2"/><circle cx="70" cy="48" r="11.5" stroke="#fff" stroke-dasharray="2 2"/><path d="M41.02 16.564c.6 0 1.108.072 1.524.216.424.144.76.384 1.008.72.256.328.44.768.552 1.32.12.552.18 1.232.18 2.04s-.06 1.488-.18 2.04c-.112.552-.296.996-.552 1.332a2.055 2.055 0 0 1-1.008.708c-.416.144-.924.216-1.524.216-.608 0-1.12-.072-1.536-.216a2.13 2.13 0 0 1-1.008-.708c-.256-.336-.444-.78-.564-1.332-.112-.552-.168-1.232-.168-2.04s.056-1.488.168-2.04c.12-.552.308-.992.564-1.32a2.099 2.099 0 0 1 1.008-.72c.416-.144.928-.216 1.536-.216Zm-.492 8.952c.472.2.972.368 1.5.504s1.088.248 1.68.336l-.336 1.056a8.29 8.29 0 0 1-1.716-.54c-.52-.224-.996-.464-1.428-.72l.3-.636Zm.492-8.004c-.544 0-.976.104-1.296.312-.312.208-.536.556-.672 1.044-.128.48-.192 1.144-.192 1.992 0 .84.064 1.504.192 1.992.136.488.36.836.672 1.044.32.208.752.312 1.296.312s.972-.104 1.284-.312c.312-.208.536-.556.672-1.044s.204-1.152.204-1.992c0-.848-.068-1.512-.204-1.992-.136-.488-.36-.836-.672-1.044-.312-.208-.74-.312-1.284-.312Zm7.44-.792V25h-1.057v-6.564c0-.12.004-.24.012-.36s.024-.24.048-.36l-2.028.636-.144-.78 2.112-.852h1.056Z" fill="#D26542"/><path d="M41.284 43.72c.096 0 .18.028.252.084.072.048.12.116.144.204L44.344 52h-1.092l-2.148-6.792a5.453 5.453 0 0 0-.108-.336 9.251 9.251 0 0 0-.096-.336h-.336a9.251 9.251 0 0 0-.096.336 5.453 5.453 0 0 1-.108.336L38.212 52H37.12l2.664-7.992a.345.345 0 0 1 .144-.204.399.399 0 0 1 .252-.084h1.104Zm1.536 4.776v.912h-4.2v-.912h4.2Zm4.69-4.776V52h-1.056v-6.564c0-.12.004-.24.012-.36s.024-.24.048-.36l-2.028.636-.144-.78 2.112-.852h1.056Z" fill="#519A58"/><path d="M67.02 16.564c.6 0 1.108.072 1.524.216.424.144.76.384 1.008.72.256.328.44.768.552 1.32.12.552.18 1.232.18 2.04s-.06 1.488-.18 2.04c-.112.552-.296.996-.552 1.332a2.055 2.055 0 0 1-1.008.708c-.416.144-.924.216-1.524.216-.608 0-1.12-.072-1.536-.216a2.13 2.13 0 0 1-1.008-.708c-.256-.336-.444-.78-.564-1.332-.112-.552-.168-1.232-.168-2.04s.056-1.488.168-2.04c.12-.552.308-.992.564-1.32a2.099 2.099 0 0 1 1.008-.72c.416-.144.928-.216 1.536-.216Zm-.492 8.952c.472.2.972.368 1.5.504s1.088.248 1.68.336l-.336 1.056a8.29 8.29 0 0 1-1.716-.54c-.52-.224-.996-.464-1.428-.72l.3-.636Zm.492-8.004c-.544 0-.976.104-1.296.312-.312.208-.536.556-.672 1.044-.128.48-.192 1.144-.192 1.992 0 .84.064 1.504.192 1.992.136.488.36.836.672 1.044.32.208.752.312 1.296.312s.972-.104 1.284-.312c.312-.208.536-.556.672-1.044s.204-1.152.204-1.992c0-.848-.068-1.512-.204-1.992-.136-.488-.36-.836-.672-1.044-.312-.208-.74-.312-1.284-.312Zm7.26-.936c.527 0 .98.044 1.355.132.384.088.676.26.876.516.208.256.312.636.312 1.14 0 .344-.048.668-.144.972-.088.304-.24.62-.456.948-.216.32-.508.684-.876 1.092l-2.376 2.652c.208-.016.428-.028.66-.036.24-.008.468-.012.684-.012h2.808V25h-5.436v-.66c0-.088.012-.168.036-.24a.576.576 0 0 1 .12-.216l2.4-2.712c.528-.568.916-1.072 1.164-1.512.248-.44.364-.856.348-1.248-.008-.272-.076-.468-.204-.588-.12-.128-.296-.212-.528-.252a4.73 4.73 0 0 0-.816-.06c-.256 0-.5.004-.732.012-.232.008-.48.028-.744.06-.256.024-.556.064-.9.12l-.072-.816c.376-.088.704-.152.984-.192.288-.048.552-.08.792-.096.248-.016.496-.024.744-.024Z" fill="#D26542"/><path d="M67.284 43.72c.096 0 .18.028.252.084.072.048.12.116.144.204L70.344 52h-1.092l-2.148-6.792a5.453 5.453 0 0 0-.108-.336 9.251 9.251 0 0 0-.096-.336h-.336a9.251 9.251 0 0 0-.096.336 5.453 5.453 0 0 1-.108.336L64.212 52H63.12l2.664-7.992a.345.345 0 0 1 .144-.204.399.399 0 0 1 .252-.084h1.104Zm1.536 4.776v.912h-4.2v-.912h4.2Zm4.897-4.92c.528 0 .98.044 1.356.132.384.088.676.26.876.516.208.256.312.636.312 1.14 0 .344-.048.668-.144.972-.088.304-.24.62-.456.948-.216.32-.508.684-.876 1.092l-2.376 2.652c.208-.016.428-.028.66-.036.24-.008.468-.012.684-.012h2.808V52h-5.436v-.66c0-.088.012-.168.036-.24a.576.576 0 0 1 .12-.216l2.4-2.712c.528-.568.916-1.072 1.164-1.512.248-.44.364-.856.348-1.248-.008-.272-.076-.468-.204-.588-.12-.128-.296-.212-.528-.252a4.73 4.73 0 0 0-.816-.06c-.256 0-.5.004-.732.012-.232.008-.48.028-.744.06-.256.024-.556.064-.9.12l-.072-.816c.376-.088.704-.152.984-.192.288-.048.552-.08.792-.096.248-.016.496-.024.744-.024Z" fill="#519A58"/></svg>