<svg width="116" height="60" fill="none" xmlns="http://www.w3.org/2000/svg"><rect x="14" y="11" width="37" height="15" rx="3" fill="url(#a)"/><path d="M25.25 19.385c0 .107.018.187.055.24.037.05.092.088.165.115l-.105.32a.703.703 0 0 1-.33-.115.526.526 0 0 1-.185-.28c-.177.263-.438.395-.785.395-.26 0-.465-.073-.615-.22a.768.768 0 0 1-.225-.575c0-.28.1-.495.3-.645.203-.15.49-.225.86-.225h.405V18.2c0-.187-.045-.32-.135-.4-.09-.08-.228-.12-.415-.12-.193 0-.43.047-.71.14l-.115-.335c.327-.12.63-.18.91-.18.31 0 .542.077.695.23.153.15.23.365.23.645v1.205Zm-1.08.33c.263 0 .47-.137.62-.41V18.7h-.345c-.487 0-.73.18-.73.54 0 .157.038.275.115.355.077.08.19.12.34.12Zm3.265-2.41c.24 0 .426.072.56.215.136.143.205.34.205.59V20h-.46v-1.825c0-.187-.035-.318-.105-.395-.07-.077-.174-.115-.31-.115a.6.6 0 0 0-.37.12 1.25 1.25 0 0 0-.3.345V20h-.46v-2.635h.395l.04.39c.093-.14.208-.25.345-.33a.91.91 0 0 1 .46-.12Zm2.404 0c.18 0 .342.025.485.075.144.05.28.125.41.225l-.195.29a1.569 1.569 0 0 0-.345-.17 1.038 1.038 0 0 0-.34-.055.59.59 0 0 0-.355.095.287.287 0 0 0-.13.25c0 .107.04.19.12.25.084.06.232.118.445.175.294.073.512.173.655.3.147.127.22.3.22.52 0 .26-.101.458-.305.595a1.27 1.27 0 0 1-.735.205c-.4 0-.731-.115-.995-.345l.245-.28c.224.17.47.255.74.255.174 0 .31-.035.41-.105a.344.344 0 0 0 .155-.295.373.373 0 0 0-.055-.215.422.422 0 0 0-.19-.145 2.403 2.403 0 0 0-.395-.135c-.28-.073-.483-.172-.61-.295a.637.637 0 0 1-.185-.47c0-.137.04-.26.12-.37a.79.79 0 0 1 .34-.26 1.23 1.23 0 0 1 .49-.095Zm4.595.06-.6 2.635h-.625l-.46-2.22-.475 2.22h-.61l-.615-2.635h.46l.475 2.315.52-2.315h.515l.495 2.315.48-2.315h.44Zm2.564 1.24c0 .077-.003.155-.01.235h-1.68c.02.29.093.503.22.64s.29.205.49.205c.127 0 .243-.018.35-.055.107-.037.218-.095.335-.175l.2.275c-.28.22-.587.33-.92.33-.366 0-.653-.12-.86-.36-.203-.24-.305-.57-.305-.99 0-.273.044-.515.13-.725.09-.213.217-.38.38-.5a.975.975 0 0 1 .585-.18c.35 0 .619.115.805.345.187.23.28.548.28.955Zm-.455-.135c0-.26-.051-.458-.155-.595-.103-.137-.258-.205-.465-.205-.377 0-.581.277-.615.83h1.235v-.03Zm2.335-1.165c.093 0 .18.01.26.03l-.085.45a.948.948 0 0 0-.23-.03.489.489 0 0 0-.395.18c-.1.12-.178.307-.235.56V20h-.46v-2.635h.395l.045.535a1 1 0 0 1 .285-.445c.12-.1.26-.15.42-.15Zm3.247-.65V20h-.46v-2.855l-.78.475-.2-.325 1.035-.64h.405Z" fill="#fff"/><rect x="14" y="35" width="37" height="15" rx="3" fill="url(#b)"/><path d="M24.25 43.385c0 .107.018.187.055.24.037.05.092.088.165.115l-.105.32a.703.703 0 0 1-.33-.115.526.526 0 0 1-.185-.28c-.177.263-.438.395-.785.395-.26 0-.465-.073-.615-.22a.768.768 0 0 1-.225-.575c0-.28.1-.495.3-.645.203-.15.49-.225.86-.225h.405V42.2c0-.187-.045-.32-.135-.4-.09-.08-.228-.12-.415-.12-.193 0-.43.047-.71.14l-.115-.335c.327-.12.63-.18.91-.18.31 0 .542.077.695.23.153.15.23.365.23.645v1.205Zm-1.08.33c.263 0 .47-.137.62-.41V42.7h-.345c-.487 0-.73.18-.73.54 0 .157.038.275.115.355.077.08.19.12.34.12Zm3.265-2.41c.24 0 .426.072.56.215.136.143.205.34.205.59V44h-.46v-1.825c0-.187-.035-.318-.105-.395-.07-.077-.174-.115-.31-.115a.6.6 0 0 0-.37.12 1.25 1.25 0 0 0-.3.345V44h-.46v-2.635h.395l.04.39c.093-.14.208-.25.345-.33a.91.91 0 0 1 .46-.12Zm2.404 0c.18 0 .342.025.485.075.144.05.28.125.41.225l-.195.29a1.569 1.569 0 0 0-.345-.17 1.038 1.038 0 0 0-.34-.055.59.59 0 0 0-.355.095.287.287 0 0 0-.13.25c0 .107.04.19.12.25.084.06.232.118.445.175.294.073.512.173.655.3.147.127.22.3.22.52 0 .26-.101.458-.305.595a1.27 1.27 0 0 1-.735.205c-.4 0-.731-.115-.995-.345l.245-.28c.224.17.47.255.74.255.174 0 .31-.035.41-.105a.344.344 0 0 0 .155-.295.373.373 0 0 0-.055-.215.422.422 0 0 0-.19-.145 2.403 2.403 0 0 0-.395-.135c-.28-.073-.483-.172-.61-.295a.637.637 0 0 1-.185-.47c0-.137.04-.26.12-.37a.79.79 0 0 1 .34-.26 1.23 1.23 0 0 1 .49-.095Zm4.595.06-.6 2.635h-.625l-.46-2.22-.475 2.22h-.61l-.615-2.635h.46l.475 2.315.52-2.315h.515l.495 2.315.48-2.315h.44Zm2.564 1.24c0 .077-.003.155-.01.235h-1.68c.02.29.093.503.22.64s.29.205.49.205c.127 0 .243-.018.35-.055.107-.037.218-.095.335-.175l.2.275c-.28.22-.587.33-.92.33-.366 0-.653-.12-.86-.36-.203-.24-.305-.57-.305-.99 0-.273.044-.515.13-.725.09-.213.217-.38.38-.5a.975.975 0 0 1 .585-.18c.35 0 .619.115.805.345.187.23.28.548.28.955Zm-.455-.135c0-.26-.051-.458-.155-.595-.103-.137-.258-.205-.465-.205-.377 0-.581.277-.615.83h1.235v-.03Zm2.335-1.165c.093 0 .18.01.26.03l-.085.45a.948.948 0 0 0-.23-.03.489.489 0 0 0-.395.18c-.1.12-.178.307-.235.56V44h-.46v-2.635h.395l.045.535a1 1 0 0 1 .285-.445c.12-.1.26-.15.42-.15Zm2.757-.7c.206 0 .383.038.53.115a.81.81 0 0 1 .34.31c.08.13.12.272.12.425 0 .203-.06.372-.18.505a.888.888 0 0 1-.47.265c.223.02.405.1.545.24.14.14.21.33.21.57a.978.978 0 0 1-.54.895c-.174.087-.374.13-.6.13a1.4 1.4 0 0 1-.56-.11 1.251 1.251 0 0 1-.445-.34l.275-.255c.11.113.221.197.335.25.116.053.243.08.38.08.21 0 .375-.058.495-.175.12-.12.18-.28.18-.48 0-.22-.057-.375-.17-.465-.114-.09-.279-.135-.495-.135h-.25l.055-.355h.17a.614.614 0 0 0 .43-.155.552.552 0 0 0 .175-.435c0-.157-.05-.28-.15-.37a.57.57 0 0 0-.405-.14c-.13 0-.25.023-.36.07a1.189 1.189 0 0 0-.33.23L39.68 41c.283-.263.601-.395.955-.395Z" fill="#fff"/><rect x="64" y="11" width="37" height="15" rx="3" fill="url(#c)"/><path d="M75.25 19.385c0 .107.018.187.055.24.037.05.092.088.165.115l-.105.32a.703.703 0 0 1-.33-.115.526.526 0 0 1-.185-.28c-.177.263-.438.395-.785.395-.26 0-.465-.073-.615-.22a.768.768 0 0 1-.225-.575c0-.28.1-.495.3-.645.203-.15.49-.225.86-.225h.405V18.2c0-.187-.045-.32-.135-.4-.09-.08-.228-.12-.415-.12-.193 0-.43.047-.71.14l-.115-.335c.327-.12.63-.18.91-.18.31 0 .542.077.695.23.153.15.23.365.23.645v1.205Zm-1.08.33c.263 0 .47-.137.62-.41V18.7h-.345c-.487 0-.73.18-.73.54 0 .157.038.275.115.355.077.08.19.12.34.12Zm3.265-2.41c.24 0 .426.072.56.215.136.143.205.34.205.59V20h-.46v-1.825c0-.187-.035-.318-.105-.395-.07-.077-.174-.115-.31-.115a.6.6 0 0 0-.37.12 1.25 1.25 0 0 0-.3.345V20h-.46v-2.635h.395l.04.39c.093-.14.208-.25.345-.33a.91.91 0 0 1 .46-.12Zm2.404 0c.18 0 .342.025.485.075.144.05.28.125.41.225l-.195.29a1.569 1.569 0 0 0-.345-.17 1.038 1.038 0 0 0-.34-.055.59.59 0 0 0-.355.095.287.287 0 0 0-.13.25c0 .107.04.19.12.25.084.06.232.118.445.175.294.073.512.173.655.3.147.127.22.3.22.52 0 .26-.101.458-.305.595a1.27 1.27 0 0 1-.735.205c-.4 0-.731-.115-.995-.345l.245-.28c.224.17.47.255.74.255.174 0 .31-.035.41-.105a.344.344 0 0 0 .155-.295.373.373 0 0 0-.055-.215.422.422 0 0 0-.19-.145 2.403 2.403 0 0 0-.395-.135c-.28-.073-.483-.172-.61-.295a.637.637 0 0 1-.185-.47c0-.137.04-.26.12-.37a.79.79 0 0 1 .34-.26 1.23 1.23 0 0 1 .49-.095Zm4.595.06-.6 2.635h-.625l-.46-2.22-.475 2.22h-.61l-.615-2.635h.46l.475 2.315.52-2.315h.515l.495 2.315.48-2.315h.44Zm2.564 1.24c0 .077-.003.155-.01.235h-1.68c.02.29.093.503.22.64s.29.205.49.205c.127 0 .243-.018.35-.055.107-.037.219-.095.335-.175l.2.275c-.28.22-.587.33-.92.33-.367 0-.653-.12-.86-.36-.203-.24-.305-.57-.305-.99 0-.273.044-.515.13-.725.09-.213.217-.38.38-.5a.975.975 0 0 1 .585-.18c.35 0 .618.115.805.345.187.23.28.548.28.955Zm-.455-.135c0-.26-.052-.458-.155-.595-.103-.137-.258-.205-.465-.205-.377 0-.582.277-.615.83h1.235v-.03Zm2.335-1.165c.093 0 .18.01.26.03l-.085.45a.948.948 0 0 0-.23-.03.489.489 0 0 0-.395.18c-.1.12-.178.307-.235.56V20h-.46v-2.635h.395l.045.535a1 1 0 0 1 .285-.445c.12-.1.26-.15.42-.15Zm2.772-.7c.2 0 .375.04.525.12a.872.872 0 0 1 .48.795c0 .203-.047.398-.14.585-.09.187-.23.388-.42.605-.19.217-.479.518-.865.905h1.505L92.68 20h-1.975v-.365c.446-.463.763-.802.95-1.015.186-.217.32-.405.4-.565.08-.16.12-.332.12-.515a.537.537 0 0 0-.15-.405.54.54 0 0 0-.4-.15.736.736 0 0 0-.36.085 1.3 1.3 0 0 0-.33.28l-.3-.24c.136-.17.288-.297.455-.38.166-.083.353-.125.56-.125Z" fill="#fff"/><rect x="64" y="35" width="37" height="15" rx="3" fill="url(#d)"/><path d="M74.25 43.385c0 .107.018.187.055.24.037.05.092.088.165.115l-.105.32a.703.703 0 0 1-.33-.115.526.526 0 0 1-.185-.28c-.177.263-.438.395-.785.395-.26 0-.465-.073-.615-.22a.768.768 0 0 1-.225-.575c0-.28.1-.495.3-.645.203-.15.49-.225.86-.225h.405V42.2c0-.187-.045-.32-.135-.4-.09-.08-.228-.12-.415-.12-.193 0-.43.047-.71.14l-.115-.335c.327-.12.63-.18.91-.18.31 0 .542.077.695.23.153.15.23.365.23.645v1.205Zm-1.08.33c.263 0 .47-.137.62-.41V42.7h-.345c-.487 0-.73.18-.73.54 0 .157.038.275.115.355.077.08.19.12.34.12Zm3.265-2.41c.24 0 .426.072.56.215.136.143.205.34.205.59V44h-.46v-1.825c0-.187-.035-.318-.105-.395-.07-.077-.174-.115-.31-.115a.6.6 0 0 0-.37.12 1.25 1.25 0 0 0-.3.345V44h-.46v-2.635h.395l.04.39c.093-.14.208-.25.345-.33a.91.91 0 0 1 .46-.12Zm2.404 0c.18 0 .342.025.485.075.144.05.28.125.41.225l-.195.29a1.569 1.569 0 0 0-.345-.17 1.038 1.038 0 0 0-.34-.055.59.59 0 0 0-.355.095.287.287 0 0 0-.13.25c0 .107.04.19.12.25.084.06.232.118.445.175.294.073.512.173.655.3.147.127.22.3.22.52 0 .26-.101.458-.305.595a1.27 1.27 0 0 1-.735.205c-.4 0-.731-.115-.995-.345l.245-.28c.224.17.47.255.74.255.174 0 .31-.035.41-.105a.344.344 0 0 0 .155-.295.373.373 0 0 0-.055-.215.422.422 0 0 0-.19-.145 2.403 2.403 0 0 0-.395-.135c-.28-.073-.483-.172-.61-.295a.637.637 0 0 1-.185-.47c0-.137.04-.26.12-.37a.79.79 0 0 1 .34-.26 1.23 1.23 0 0 1 .49-.095Zm4.595.06-.6 2.635h-.625l-.46-2.22-.475 2.22h-.61l-.615-2.635h.46l.475 2.315.52-2.315h.515l.495 2.315.48-2.315h.44Zm2.564 1.24c0 .077-.003.155-.01.235h-1.68c.02.29.093.503.22.64s.29.205.49.205c.127 0 .243-.018.35-.055.107-.037.219-.095.335-.175l.2.275c-.28.22-.587.33-.92.33-.367 0-.653-.12-.86-.36-.203-.24-.305-.57-.305-.99 0-.273.044-.515.13-.725.09-.213.217-.38.38-.5a.975.975 0 0 1 .585-.18c.35 0 .618.115.805.345.187.23.28.548.28.955Zm-.455-.135c0-.26-.052-.458-.155-.595-.103-.137-.258-.205-.465-.205-.377 0-.582.277-.615.83h1.235v-.03Zm2.335-1.165c.093 0 .18.01.26.03l-.085.45a.948.948 0 0 0-.23-.03.489.489 0 0 0-.395.18c-.1.12-.178.307-.235.56V44h-.46v-2.635h.395l.045.535a1 1 0 0 1 .285-.445c.12-.1.26-.15.42-.15Zm4.142 1.505v.365h-.435V44h-.445v-.825h-1.43v-.33l1.005-2.24.385.16-.905 2.045h.95l.04-.9h.4v.9h.435Z" fill="#fff"/><defs><linearGradient id="a" x1="32.5" y1="11" x2="32.5" y2="26" gradientUnits="userSpaceOnUse"><stop stop-color="#0A88F1"/><stop offset="1" stop-color="#0D78D9"/></linearGradient><linearGradient id="b" x1="32.5" y1="35" x2="32.5" y2="50" gradientUnits="userSpaceOnUse"><stop stop-color="#0A88F1"/><stop offset="1" stop-color="#0D78D9"/></linearGradient><linearGradient id="c" x1="82.5" y1="11" x2="82.5" y2="26" gradientUnits="userSpaceOnUse"><stop stop-color="#0A88F1"/><stop offset="1" stop-color="#0D78D9"/></linearGradient><linearGradient id="d" x1="82.5" y1="35" x2="82.5" y2="50" gradientUnits="userSpaceOnUse"><stop stop-color="#0A88F1"/><stop offset="1" stop-color="#0D78D9"/></linearGradient></defs></svg>