<svg width="116" height="60" fill="none" xmlns="http://www.w3.org/2000/svg"><path d="M55.976 13.976c4.021 0 6.985.659 8.892 1.976 1.941 1.283 2.912 3.31 2.912 6.084 0 1.49-.295 2.79-.884 3.9a12.6 12.6 0 0 1-2.132 2.964c-.867.901-1.768 1.82-2.704 2.756a16.224 16.224 0 0 0-2.392 3.224c-.693 1.179-1.144 2.617-1.352 4.316h-8.528c-.104-1.733.017-3.276.364-4.628.381-1.352.884-2.548 1.508-3.588a20.82 20.82 0 0 1 1.924-2.808c.659-.832 1.23-1.56 1.716-2.184.485-.624.78-1.179.884-1.664.173-.659.035-1.11-.416-1.352-.45-.243-1.283-.364-2.496-.364H42.508l-.26-7.176a484.52 484.52 0 0 0 2.912-.572c.901-.173 1.837-.33 2.808-.468.97-.139 2.08-.243 3.328-.312a88.823 88.823 0 0 1 4.68-.104Zm-.728 27.404c1.421 0 2.392.277 2.912.832.555.52.832 1.49.832 2.912v2.132c0 1.421-.277 2.41-.832 2.964-.52.52-1.49.78-2.912.78h-2.444c-1.421 0-2.41-.26-2.964-.78-.52-.555-.78-1.543-.78-2.964v-2.132c0-1.421.26-2.392.78-2.912.555-.555 1.543-.832 2.964-.832h2.444ZM30.912 19.912c1.856 0 3.224.304 4.104.912.896.592 1.344 1.528 1.344 2.808 0 .688-.136 1.288-.408 1.8a5.816 5.816 0 0 1-.984 1.368c-.4.416-.816.84-1.248 1.272a7.488 7.488 0 0 0-1.104 1.488c-.32.544-.528 1.208-.624 1.992h-3.936c-.048-.8.008-1.512.168-2.136a6.783 6.783 0 0 1 .696-1.656c.288-.496.584-.928.888-1.296.304-.384.568-.72.792-1.008.224-.288.36-.544.408-.768.08-.304.016-.512-.192-.624-.208-.112-.592-.168-1.152-.168h-4.968l-.12-3.312c.496-.096.944-.184 1.344-.264.416-.08.848-.152 1.296-.216.448-.064.96-.112 1.536-.144a40.978 40.978 0 0 1 2.16-.048Zm-.336 12.648c.656 0 1.104.128 1.344.384.256.24.384.688.384 1.344v.984c0 .656-.128 1.112-.384 1.368-.24.24-.688.36-1.344.36h-1.128c-.656 0-1.112-.12-1.368-.36-.24-.256-.36-.712-.36-1.368v-.984c0-.656.12-1.104.36-1.344.256-.256.712-.384 1.368-.384h1.128Zm49.928-11.056c2.552 0 4.433.418 5.643 1.254 1.232.814 1.848 2.101 1.848 3.861 0 .946-.187 1.771-.561 2.475a7.996 7.996 0 0 1-1.353 1.881c-.55.572-1.122 1.155-1.716 1.749a10.295 10.295 0 0 0-1.518 2.046c-.44.748-.726 1.661-.858 2.739h-5.412c-.066-1.1.011-2.079.231-2.937a9.327 9.327 0 0 1 .957-2.277c.396-.682.803-1.276 1.221-1.782.418-.528.781-.99 1.089-1.386.308-.396.495-.748.561-1.056.11-.418.022-.704-.264-.858-.286-.154-.814-.231-1.584-.231h-6.831l-.165-4.554c.682-.132 1.298-.253 1.848-.363.572-.11 1.166-.209 1.782-.297a24.82 24.82 0 0 1 2.112-.198 56.344 56.344 0 0 1 2.97-.066Zm-.462 17.391c.902 0 1.518.176 1.848.528.352.33.528.946.528 1.848v1.353c0 .902-.176 1.529-.528 1.881-.33.33-.946.495-1.848.495h-1.551c-.902 0-1.529-.165-1.881-.495-.33-.352-.495-.979-.495-1.881v-1.353c0-.902.165-1.518.495-1.848.352-.352.979-.528 1.881-.528h1.551Z" fill="#666"/></svg>