<svg width="116" height="60" fill="none" xmlns="http://www.w3.org/2000/svg"><circle cx="45" cy="17" r="12" fill="url(#a)"/><path d="M43.79 19.61c.367 0 .7.057 1 .17.3.107.59.257.87.45l-.62.8c-.4-.353-.78-.597-1.14-.73-.36-.133-.847-.2-1.46-.2-.573 0-1.077-.133-1.51-.4-.433-.273-.773-.673-1.02-1.2-.24-.533-.36-1.177-.36-1.93 0-.74.12-1.38.36-1.92.247-.54.59-.95 1.03-1.23.44-.287.947-.43 1.52-.43.58 0 1.087.14 1.52.42.44.273.78.677 1.02 1.21.247.533.37 1.18.37 1.94 0 .807-.133 1.45-.4 1.93a2.82 2.82 0 0 1-1.18 1.12Zm-3.23-3.04c0 .953.167 1.653.5 2.1.34.447.807.67 1.4.67 1.267 0 1.9-.927 1.9-2.78 0-1.86-.633-2.79-1.9-2.79-.6 0-1.067.227-1.4.68-.333.453-.5 1.16-.5 2.12Zm8.467-3.26V20h-.92v-5.71l-1.56.95-.4-.65 2.07-1.28h.81Z" fill="#fff"/><circle cx="72" cy="17" r="12" fill="url(#b)"/><path d="M70.79 19.61c.367 0 .7.057 1 .17.3.107.59.257.87.45l-.62.8c-.4-.353-.78-.597-1.14-.73-.36-.133-.847-.2-1.46-.2-.573 0-1.077-.133-1.51-.4-.433-.273-.773-.673-1.02-1.2-.24-.533-.36-1.177-.36-1.93 0-.74.12-1.38.36-1.92.247-.54.59-.95 1.03-1.23.44-.287.947-.43 1.52-.43.58 0 1.087.14 1.52.42.44.273.78.677 1.02 1.21.247.533.37 1.18.37 1.94 0 .807-.133 1.45-.4 1.93a2.82 2.82 0 0 1-1.18 1.12Zm-3.23-3.04c0 .953.167 1.653.5 2.1.34.447.807.67 1.4.67 1.267 0 1.9-.927 1.9-2.78 0-1.86-.633-2.79-1.9-2.79-.6 0-1.067.227-1.4.68-.333.453-.5 1.16-.5 2.12Zm7.38-3.36c.4 0 .75.08 1.05.24a1.744 1.744 0 0 1 .96 1.59c0 .407-.093.797-.28 1.17-.18.373-.46.777-.84 1.21-.38.433-.956 1.037-1.73 1.81h3.01L77 20h-3.95v-.73a65.423 65.423 0 0 0 1.9-2.03c.373-.433.64-.81.8-1.13.16-.32.24-.663.24-1.03 0-.347-.1-.617-.3-.81-.2-.2-.466-.3-.8-.3a1.48 1.48 0 0 0-.72.17c-.207.113-.427.3-.66.56l-.6-.48a2.76 2.76 0 0 1 .91-.76c.334-.167.707-.25 1.12-.25Z" fill="#fff"/><circle cx="45" cy="44" r="12" fill="url(#c)"/><path d="m44.67 47-.52-1.73h-2.61L41.02 47h-.96l2.21-6.89h1.2l2.2 6.89h-1Zm-2.9-2.5h2.15l-1.07-3.6-1.08 3.6Zm6.694-4.19V47h-.92v-5.71l-1.56.95-.4-.65 2.07-1.28h.81Z" fill="#fff"/><circle cx="72" cy="44" r="12" fill="url(#d)"/><path d="m71.67 47-.52-1.73h-2.61L68.02 47h-.96l2.21-6.89h1.2l2.2 6.89h-1Zm-2.9-2.5h2.15l-1.07-3.6-1.08 3.6Zm6.34-4.29c.4 0 .75.08 1.05.24a1.744 1.744 0 0 1 .96 1.59c0 .407-.093.797-.28 1.17-.18.373-.46.777-.84 1.21-.38.433-.957 1.037-1.73 1.81h3.01l-.11.77h-3.95v-.73a65.423 65.423 0 0 0 1.9-2.03c.373-.433.64-.81.8-1.13.16-.32.24-.663.24-1.03 0-.347-.1-.617-.3-.81-.2-.2-.467-.3-.8-.3a1.48 1.48 0 0 0-.72.17c-.207.113-.427.3-.66.56l-.6-.48a2.76 2.76 0 0 1 .91-.76c.333-.167.707-.25 1.12-.25Z" fill="#fff"/><defs><linearGradient id="a" x1="45" y1="5" x2="45" y2="29" gradientUnits="userSpaceOnUse"><stop stop-color="#E60A07"/><stop offset="1" stop-color="#B20603"/></linearGradient><linearGradient id="b" x1="72" y1="5" x2="72" y2="29" gradientUnits="userSpaceOnUse"><stop stop-color="#E60A07"/><stop offset="1" stop-color="#B20603"/></linearGradient><linearGradient id="c" x1="45" y1="32" x2="45" y2="56" gradientUnits="userSpaceOnUse"><stop stop-color="#0A88F0"/><stop offset="1" stop-color="#0D78D8"/></linearGradient><linearGradient id="d" x1="72" y1="32" x2="72" y2="56" gradientUnits="userSpaceOnUse"><stop stop-color="#0A88F0"/><stop offset="1" stop-color="#0D78D8"/></linearGradient></defs></svg>