<svg width="116" height="60" fill="none" xmlns="http://www.w3.org/2000/svg"><rect x="14.5" y="13.5" width="36" height="14" rx="2.5" stroke="#fff" stroke-dasharray="2 2"/><rect x="64.5" y="13.5" width="36" height="14" rx="2.5" stroke="#fff" stroke-dasharray="2 2"/><path d="M20.644 19.006a4.326 4.326 0 0 1 1.002.12c.116.024.222.052.318.084l-.414.354a2.837 2.837 0 0 0-.63-.12c-.1-.008-.194-.01-.282-.006a.95.95 0 0 0-.462.108c-.116.064-.2.178-.252.342-.048.164-.072.396-.072.696 0 .356.044.62.132.792.088.168.26.252.516.252.184 0 .35-.038.498-.114.152-.08.324-.186.516-.318l.066.336c-.124.112-.254.21-.39.294-.136.08-.276.142-.42.186-.14.044-.286.066-.438.066-.34 0-.592-.122-.756-.366-.164-.244-.246-.632-.246-1.164 0-.252.02-.474.06-.666.044-.192.116-.352.216-.48.1-.132.234-.23.402-.294.168-.068.38-.102.636-.102Zm.81.186.51.018v3.996h-.51l-.006-1.002c0-.128.004-.242.012-.342.008-.104.024-.21.048-.318l-.054-.084v-2.268Zm1.928-.114v2.052c-.004.184.03.314.102.39.072.076.192.114.36.114.164 0 .326-.038.486-.114.164-.08.36-.194.588-.342l.066.354c-.228.18-.45.316-.666.408a1.613 1.613 0 0 1-.648.138c-.532 0-.798-.268-.798-.804v-2.196h.51Zm1.992 0V22h-.408l-.048-.552-.054-.09v-2.28h.51Zm2.138-.072c.44 0 .758.08.954.24.2.16.3.398.3.714.004.26-.05.464-.162.612-.112.144-.29.216-.534.216h-1.704v-.396h1.572c.132 0 .218-.044.258-.132a.744.744 0 0 0 .06-.3c-.004-.188-.06-.322-.168-.402-.108-.08-.292-.12-.552-.12-.212 0-.38.032-.504.096a.526.526 0 0 0-.258.324c-.048.152-.072.366-.072.642 0 .312.03.55.09.714a.572.572 0 0 0 .3.336c.136.06.316.09.54.09.156 0 .326-.006.51-.018.188-.016.356-.034.504-.054l.054.342a1.82 1.82 0 0 1-.342.09 4.32 4.32 0 0 1-.414.054c-.14.012-.266.018-.378.018-.336 0-.606-.05-.81-.15a.952.952 0 0 1-.45-.492c-.092-.228-.138-.528-.138-.9 0-.384.046-.686.138-.906a.881.881 0 0 1 .438-.474c.2-.096.456-.144.768-.144Zm2.994 0c.128 0 .264.004.408.012.144.008.286.018.426.03.144.012.276.028.396.048l-.042.372c-.184-.008-.37-.014-.558-.018a12.707 12.707 0 0 0-.552-.012c-.18-.004-.322 0-.426.012-.104.012-.18.044-.228.096-.044.052-.066.14-.066.264 0 .152.036.252.108.3a.98.98 0 0 0 .318.12l.852.192c.232.056.402.142.51.258.112.116.168.298.168.546 0 .24-.046.42-.138.54a.654.654 0 0 1-.408.24c-.184.04-.418.06-.702.06-.104 0-.26-.004-.468-.012a5.692 5.692 0 0 1-.678-.072l.036-.372c.096.004.198.01.306.018.108.004.22.006.336.006h.366c.22 0 .392-.01.516-.03.124-.02.212-.058.264-.114.052-.06.078-.148.078-.264 0-.144-.042-.24-.126-.288a1.246 1.246 0 0 0-.336-.12l-.84-.192a1.235 1.235 0 0 1-.384-.156.597.597 0 0 1-.21-.258 1.07 1.07 0 0 1-.066-.402c0-.228.04-.4.12-.516a.598.598 0 0 1 .372-.234 2.7 2.7 0 0 1 .648-.054Zm2.807-.792v2.982c0 .14.03.24.09.3s.162.09.306.09h.444l.06.39a2.69 2.69 0 0 1-.468.066c-.08.008-.144.012-.192.012-.244 0-.43-.068-.558-.204-.128-.136-.192-.332-.192-.588v-3.048h.51Zm.93.864v.402h-1.968v-.372l.576-.03h1.392Zm1.151 0V22h-.504v-2.922h.504Zm-.132-1.242c.104 0 .156.052.156.156v.342c0 .104-.052.156-.156.156h-.24c-.104 0-.156-.052-.156-.156v-.342c0-.104.052-.156.156-.156h.24Zm2.329 1.17c.336 0 .604.05.804.15.204.1.35.264.438.492.088.224.132.522.132.894s-.044.672-.132.9a.875.875 0 0 1-.438.486c-.2.1-.468.15-.804.15-.332 0-.6-.05-.804-.15a.904.904 0 0 1-.438-.486c-.088-.228-.132-.528-.132-.9s.044-.67.132-.894a.903.903 0 0 1 .438-.492c.204-.1.472-.15.804-.15Zm0 .432c-.212 0-.38.034-.504.102a.551.551 0 0 0-.258.336c-.052.16-.078.382-.078.666 0 .284.026.506.078.666.052.16.138.274.258.342.124.064.292.096.504.096.212 0 .38-.032.504-.096a.57.57 0 0 0 .264-.342c.052-.16.078-.382.078-.666 0-.284-.026-.506-.078-.666a.545.545 0 0 0-.264-.336c-.124-.068-.292-.102-.504-.102Zm3.95-.432c.528 0 .792.268.792.804V22h-.51v-2.046c0-.196-.032-.33-.096-.402-.064-.076-.172-.114-.324-.114-.18 0-.36.044-.54.132a7.94 7.94 0 0 0-.642.36l-.024-.366c.228-.176.454-.312.678-.408.224-.1.446-.15.666-.15Zm-1.344.072.042.558.036.09V22h-.51v-2.922h.432Zm5.638-1.218V22h-.528v-3.282c0-.06.002-.12.006-.18s.012-.12.024-.18l-1.014.318-.072-.39 1.056-.426h.528Z" fill="#C6C6C6"/><rect x="14.5" y="35.5" width="36" height="14" rx="2.5" stroke="#fff" stroke-dasharray="2 2"/><path d="M20.644 41.006a4.326 4.326 0 0 1 1.002.12c.116.024.222.052.318.084l-.414.354a2.837 2.837 0 0 0-.63-.12c-.1-.008-.194-.01-.282-.006a.95.95 0 0 0-.462.108c-.116.064-.2.178-.252.342-.048.164-.072.396-.072.696 0 .356.044.62.132.792.088.168.26.252.516.252.184 0 .35-.038.498-.114.152-.08.324-.186.516-.318l.066.336c-.124.112-.254.21-.39.294-.136.08-.276.142-.42.186-.14.044-.286.066-.438.066-.34 0-.592-.122-.756-.366-.164-.244-.246-.632-.246-1.164 0-.252.02-.474.06-.666.044-.192.116-.352.216-.48.1-.132.234-.23.402-.294.168-.068.38-.102.636-.102Zm.81.186.51.018v3.996h-.51l-.006-1.002c0-.128.004-.242.012-.342.008-.104.024-.21.048-.318l-.054-.084v-2.268Zm1.928-.114v2.052c-.004.184.03.314.102.39.072.076.192.114.36.114.164 0 .326-.038.486-.114.164-.08.36-.194.588-.342l.066.354c-.228.18-.45.316-.666.408a1.613 1.613 0 0 1-.648.138c-.532 0-.798-.268-.798-.804v-2.196h.51Zm1.992 0V44h-.408l-.048-.552-.054-.09v-2.28h.51Zm2.138-.072c.44 0 .758.08.954.24.2.16.3.398.3.714.004.26-.05.464-.162.612-.112.144-.29.216-.534.216h-1.704v-.396h1.572c.132 0 .218-.044.258-.132a.744.744 0 0 0 .06-.3c-.004-.188-.06-.322-.168-.402-.108-.08-.292-.12-.552-.12-.212 0-.38.032-.504.096a.526.526 0 0 0-.258.324c-.048.152-.072.366-.072.642 0 .312.03.55.09.714a.572.572 0 0 0 .3.336c.136.06.316.09.54.09.156 0 .326-.006.51-.018.188-.016.356-.034.504-.054l.054.342a1.82 1.82 0 0 1-.342.09 4.32 4.32 0 0 1-.414.054c-.14.012-.266.018-.378.018-.336 0-.606-.05-.81-.15a.952.952 0 0 1-.45-.492c-.092-.228-.138-.528-.138-.9 0-.384.046-.686.138-.906a.881.881 0 0 1 .438-.474c.2-.096.456-.144.768-.144Zm2.994 0c.128 0 .264.004.408.012.144.008.286.018.426.03.144.012.276.028.396.048l-.042.372c-.184-.008-.37-.014-.558-.018a12.707 12.707 0 0 0-.552-.012c-.18-.004-.322 0-.426.012-.104.012-.18.044-.228.096-.044.052-.066.14-.066.264 0 .152.036.252.108.3a.98.98 0 0 0 .318.12l.852.192c.232.056.402.142.51.258.112.116.168.298.168.546 0 .24-.046.42-.138.54a.654.654 0 0 1-.408.24c-.184.04-.418.06-.702.06-.104 0-.26-.004-.468-.012a5.692 5.692 0 0 1-.678-.072l.036-.372c.096.004.198.01.306.018.108.004.22.006.336.006h.366c.22 0 .392-.01.516-.03.124-.02.212-.058.264-.114.052-.06.078-.148.078-.264 0-.144-.042-.24-.126-.288a1.246 1.246 0 0 0-.336-.12l-.84-.192a1.235 1.235 0 0 1-.384-.156.597.597 0 0 1-.21-.258 1.07 1.07 0 0 1-.066-.402c0-.228.04-.4.12-.516a.598.598 0 0 1 .372-.234 2.7 2.7 0 0 1 .648-.054Zm2.807-.792v2.982c0 .14.03.24.09.3s.162.09.306.09h.444l.06.39a2.69 2.69 0 0 1-.468.066c-.08.008-.144.012-.192.012-.244 0-.43-.068-.558-.204-.128-.136-.192-.332-.192-.588v-3.048h.51Zm.93.864v.402h-1.968v-.372l.576-.03h1.392Zm1.151 0V44h-.504v-2.922h.504Zm-.132-1.242c.104 0 .156.052.156.156v.342c0 .104-.052.156-.156.156h-.24c-.104 0-.156-.052-.156-.156v-.342c0-.104.052-.156.156-.156h.24Zm2.329 1.17c.336 0 .604.05.804.15.204.1.35.264.438.492.088.224.132.522.132.894s-.044.672-.132.9a.875.875 0 0 1-.438.486c-.2.1-.468.15-.804.15-.332 0-.6-.05-.804-.15a.904.904 0 0 1-.438-.486c-.088-.228-.132-.528-.132-.9s.044-.67.132-.894a.903.903 0 0 1 .438-.492c.204-.1.472-.15.804-.15Zm0 .432c-.212 0-.38.034-.504.102a.551.551 0 0 0-.258.336c-.052.16-.078.382-.078.666 0 .284.026.506.078.666.052.16.138.274.258.342.124.064.292.096.504.096.212 0 .38-.032.504-.096a.57.57 0 0 0 .264-.342c.052-.16.078-.382.078-.666 0-.284-.026-.506-.078-.666a.545.545 0 0 0-.264-.336c-.124-.068-.292-.102-.504-.102Zm3.95-.432c.528 0 .792.268.792.804V44h-.51v-2.046c0-.196-.032-.33-.096-.402-.064-.076-.172-.114-.324-.114-.18 0-.36.044-.54.132a7.94 7.94 0 0 0-.642.36l-.024-.366c.228-.176.454-.312.678-.408.224-.1.446-.15.666-.15Zm-1.344.072.042.558.036.09V44h-.51v-2.922h.432Zm5.548-1.29c.264 0 .49.022.678.066.192.044.338.13.438.258.104.128.156.318.156.57 0 .172-.024.334-.072.486-.044.152-.12.31-.228.474a5.11 5.11 0 0 1-.438.546l-1.188 1.326a7.829 7.829 0 0 1 .672-.024h1.404V44H44.45v-.33c0-.044.006-.084.018-.12a.288.288 0 0 1 .06-.108l1.2-1.356c.264-.284.458-.536.582-.756.124-.22.182-.428.174-.624-.004-.136-.038-.234-.102-.294a.456.456 0 0 0-.264-.126 2.365 2.365 0 0 0-.408-.03c-.128 0-.25.002-.366.006-.116.004-.24.014-.372.03a6.802 6.802 0 0 0-.45.06l-.036-.408a5.8 5.8 0 0 1 .492-.096 4.074 4.074 0 0 1 .768-.06Zm27.103-20.782c.216 0 .398.03.546.09a.626.626 0 0 1 .342.288c.076.136.114.322.114.558V22h-.402l-.078-.636-.036-.066v-1.356c0-.18-.042-.308-.126-.384-.08-.08-.236-.12-.468-.12a8.66 8.66 0 0 0-.576.024 35.82 35.82 0 0 0-.678.054l-.048-.378a8.96 8.96 0 0 1 1.41-.132Zm.762 1.194-.006.384-1.398.006c-.14.004-.238.042-.294.114a.441.441 0 0 0-.084.288v.186c0 .152.036.264.108.336.072.068.188.102.348.102.112 0 .238-.02.378-.06.144-.044.288-.11.432-.198.144-.088.276-.2.396-.336v.378a1.694 1.694 0 0 1-.192.198 1.936 1.936 0 0 1-.672.39 1.435 1.435 0 0 1-.444.066c-.172 0-.324-.03-.456-.09a.746.746 0 0 1-.312-.276.882.882 0 0 1-.108-.45v-.318c0-.228.07-.404.21-.528.144-.128.344-.192.6-.192h1.494Zm2.927-1.194c.528 0 .792.268.792.804V22h-.51v-2.046c0-.196-.032-.33-.096-.402-.064-.076-.172-.114-.324-.114-.18 0-.36.044-.54.132a7.94 7.94 0 0 0-.642.36l-.024-.366c.228-.176.454-.312.678-.408.224-.1.446-.15.666-.15Zm-1.344.072.042.558.036.09V22h-.51v-2.922h.432Zm4.026-.072c.128 0 .264.004.408.012.144.008.286.018.426.03.144.012.276.028.396.048l-.042.372c-.184-.008-.37-.014-.558-.018a12.707 12.707 0 0 0-.552-.012c-.18-.004-.322 0-.426.012-.104.012-.18.044-.228.096-.044.052-.066.14-.066.264 0 .152.036.252.108.3a.98.98 0 0 0 .318.12l.852.192c.232.056.402.142.51.258.112.116.168.298.168.546 0 .24-.046.42-.138.54a.654.654 0 0 1-.408.24c-.184.04-.418.06-.702.06-.104 0-.26-.004-.468-.012a5.692 5.692 0 0 1-.678-.072l.036-.372c.096.004.198.01.306.018.108.004.22.006.336.006h.366c.22 0 .392-.01.516-.03.124-.02.212-.058.264-.114.052-.06.078-.148.078-.264 0-.144-.042-.24-.126-.288a1.246 1.246 0 0 0-.336-.12l-.84-.192a1.235 1.235 0 0 1-.384-.156.597.597 0 0 1-.21-.258 1.07 1.07 0 0 1-.066-.402c0-.228.04-.4.12-.516a.598.598 0 0 1 .372-.234 2.7 2.7 0 0 1 .648-.054Zm6.401.072-.852 2.778a.2.2 0 0 1-.072.108.222.222 0 0 1-.126.036h-.462a.225.225 0 0 1-.132-.042.2.2 0 0 1-.066-.12l-.48-1.986-.048-.228a2.705 2.705 0 0 0-.048-.234h-.072c-.016.08-.034.158-.054.234l-.048.228-.474 1.986a.232.232 0 0 1-.072.12.208.208 0 0 1-.132.042h-.456a.222.222 0 0 1-.126-.036.2.2 0 0 1-.072-.108l-.852-2.778h.528l.606 2.154a4.111 4.111 0 0 1 .096.438h.078c.02-.072.038-.144.054-.216.02-.076.038-.15.054-.222l.486-1.992a.187.187 0 0 1 .192-.162h.462c.048 0 .088.016.12.048.036.028.06.068.072.12l.48 1.986.048.216c.02.072.038.146.054.222h.078c.02-.076.036-.148.048-.216.012-.072.03-.146.054-.222l.606-2.154h.528Zm1.802-.072c.44 0 .758.08.954.24.2.16.3.398.3.714.004.26-.05.464-.162.612-.112.144-.29.216-.534.216h-1.704v-.396h1.572c.132 0 .218-.044.258-.132a.744.744 0 0 0 .06-.3c-.004-.188-.06-.322-.168-.402-.108-.08-.292-.12-.552-.12-.212 0-.38.032-.504.096a.526.526 0 0 0-.258.324c-.048.152-.072.366-.072.642 0 .312.03.55.09.714a.572.572 0 0 0 .3.336c.136.06.316.09.54.09.156 0 .326-.006.51-.018.188-.016.356-.034.504-.054l.054.342a1.82 1.82 0 0 1-.342.09 4.32 4.32 0 0 1-.414.054c-.14.012-.266.018-.378.018-.336 0-.606-.05-.81-.15a.952.952 0 0 1-.45-.492c-.092-.228-.138-.528-.138-.9 0-.384.046-.686.138-.906a.881.881 0 0 1 .438-.474c.2-.096.456-.144.768-.144Zm2.419.072.066.558.048.09V22h-.51v-2.922h.396Zm1.434-.072-.06.48h-.168c-.172 0-.344.036-.516.108a7.176 7.176 0 0 0-.63.294l-.042-.318c.216-.176.432-.314.648-.414.22-.1.432-.15.636-.15h.132Zm3.033-1.146V22h-.528v-3.282c0-.06.002-.12.006-.18s.012-.12.024-.18l-1.014.318-.072-.39 1.056-.426h.528Z" fill="#C6C6C6"/><rect x="64.5" y="35.5" width="36" height="14" rx="2.5" stroke="#fff" stroke-dasharray="2 2"/><path d="M71.848 41.006c.216 0 .398.03.546.09a.626.626 0 0 1 .342.288c.076.136.114.322.114.558V44h-.402l-.078-.636-.036-.066v-1.356c0-.18-.042-.308-.126-.384-.08-.08-.236-.12-.468-.12a8.66 8.66 0 0 0-.576.024 35.82 35.82 0 0 0-.678.054l-.048-.378a8.96 8.96 0 0 1 1.41-.132Zm.762 1.194-.006.384-1.398.006c-.14.004-.238.042-.294.114a.441.441 0 0 0-.084.288v.186c0 .152.036.264.108.336.072.068.188.102.348.102.112 0 .238-.02.378-.06.144-.044.288-.11.432-.198.144-.088.276-.2.396-.336v.378a1.694 1.694 0 0 1-.192.198 1.936 1.936 0 0 1-.672.39 1.435 1.435 0 0 1-.444.066c-.172 0-.324-.03-.456-.09a.746.746 0 0 1-.312-.276.882.882 0 0 1-.108-.45v-.318c0-.228.07-.404.21-.528.144-.128.344-.192.6-.192h1.494Zm2.927-1.194c.528 0 .792.268.792.804V44h-.51v-2.046c0-.196-.032-.33-.096-.402-.064-.076-.172-.114-.324-.114-.18 0-.36.044-.54.132a7.94 7.94 0 0 0-.642.36l-.024-.366c.228-.176.454-.312.678-.408.224-.1.446-.15.666-.15Zm-1.344.072.042.558.036.09V44h-.51v-2.922h.432Zm4.026-.072c.128 0 .264.004.408.012.144.008.286.018.426.03.144.012.276.028.396.048l-.042.372c-.184-.008-.37-.014-.558-.018a12.707 12.707 0 0 0-.552-.012c-.18-.004-.322 0-.426.012-.104.012-.18.044-.228.096-.044.052-.066.14-.066.264 0 .152.036.252.108.3a.98.98 0 0 0 .318.12l.852.192c.232.056.402.142.51.258.112.116.168.298.168.546 0 .24-.046.42-.138.54a.654.654 0 0 1-.408.24c-.184.04-.418.06-.702.06-.104 0-.26-.004-.468-.012a5.692 5.692 0 0 1-.678-.072l.036-.372c.096.004.198.01.306.018.108.004.22.006.336.006h.366c.22 0 .392-.01.516-.03.124-.02.212-.058.264-.114.052-.06.078-.148.078-.264 0-.144-.042-.24-.126-.288a1.246 1.246 0 0 0-.336-.12l-.84-.192a1.235 1.235 0 0 1-.384-.156.597.597 0 0 1-.21-.258 1.07 1.07 0 0 1-.066-.402c0-.228.04-.4.12-.516a.598.598 0 0 1 .372-.234 2.7 2.7 0 0 1 .648-.054Zm6.401.072-.852 2.778a.2.2 0 0 1-.072.108.222.222 0 0 1-.126.036h-.462a.225.225 0 0 1-.132-.042.2.2 0 0 1-.066-.12l-.48-1.986-.048-.228a2.705 2.705 0 0 0-.048-.234h-.072c-.016.08-.034.158-.054.234l-.048.228-.474 1.986a.232.232 0 0 1-.072.12.208.208 0 0 1-.132.042h-.456a.222.222 0 0 1-.126-.036.2.2 0 0 1-.072-.108l-.852-2.778h.528l.606 2.154a4.111 4.111 0 0 1 .096.438h.078c.02-.072.038-.144.054-.216.02-.076.038-.15.054-.222l.486-1.992a.187.187 0 0 1 .192-.162h.462c.048 0 .088.016.12.048.036.028.06.068.072.12l.48 1.986.048.216c.02.072.038.146.054.222h.078c.02-.076.036-.148.048-.216.012-.072.03-.146.054-.222l.606-2.154h.528Zm1.802-.072c.44 0 .758.08.954.24.2.16.3.398.3.714.004.26-.05.464-.162.612-.112.144-.29.216-.534.216h-1.704v-.396h1.572c.132 0 .218-.044.258-.132a.744.744 0 0 0 .06-.3c-.004-.188-.06-.322-.168-.402-.108-.08-.292-.12-.552-.12-.212 0-.38.032-.504.096a.526.526 0 0 0-.258.324c-.048.152-.072.366-.072.642 0 .312.03.55.09.714a.572.572 0 0 0 .3.336c.136.06.316.09.54.09.156 0 .326-.006.51-.018.188-.016.356-.034.504-.054l.054.342a1.82 1.82 0 0 1-.342.09 4.32 4.32 0 0 1-.414.054c-.14.012-.266.018-.378.018-.336 0-.606-.05-.81-.15a.952.952 0 0 1-.45-.492c-.092-.228-.138-.528-.138-.9 0-.384.046-.686.138-.906a.881.881 0 0 1 .438-.474c.2-.096.456-.144.768-.144Zm2.419.072.066.558.048.09V44h-.51v-2.922h.396Zm1.434-.072-.06.48h-.168c-.172 0-.344.036-.516.108a7.176 7.176 0 0 0-.63.294l-.042-.318c.216-.176.432-.314.648-.414.22-.1.432-.15.636-.15h.132Zm2.943-1.218c.264 0 .49.022.678.066.192.044.338.13.438.258.104.128.156.318.156.57 0 .172-.024.334-.072.486-.044.152-.12.31-.228.474a5.11 5.11 0 0 1-.438.546l-1.188 1.326a7.829 7.829 0 0 1 .672-.024h1.404V44h-2.718v-.33c0-.044.006-.084.018-.12a.288.288 0 0 1 .06-.108l1.2-1.356c.264-.284.458-.536.582-.756.124-.22.182-.428.174-.624-.004-.136-.038-.234-.102-.294a.456.456 0 0 0-.264-.126 2.365 2.365 0 0 0-.408-.03c-.128 0-.25.002-.366.006-.116.004-.24.014-.372.03a6.802 6.802 0 0 0-.45.06l-.036-.408a5.8 5.8 0 0 1 .492-.096 4.074 4.074 0 0 1 .768-.06Z" fill="#C6C6C6"/><path d="M52.5 42.5c1.833-1.333 5.4-5.5 5-11.5-.4-6 2.833-9.167 4.5-10" stroke="#519A58"/><path d="M52.5 21c1.833 1.333 5.4 5.5 5 11.5-.4 6 2.833 9.167 4.5 10" stroke="#D26542"/></svg>