<svg width="116" height="60" fill="none" xmlns="http://www.w3.org/2000/svg"><rect x="14.5" y="39.5" width="36" height="14" rx="2.5" stroke="#fff" stroke-dasharray="2 2"/><path d="M21.848 45.006c.216 0 .398.03.546.09a.626.626 0 0 1 .342.288c.076.136.114.322.114.558V48h-.402l-.078-.636-.036-.066v-1.356c0-.18-.042-.308-.126-.384-.08-.08-.236-.12-.468-.12a8.66 8.66 0 0 0-.576.024 35.82 35.82 0 0 0-.678.054l-.048-.378a8.96 8.96 0 0 1 1.41-.132Zm.762 1.194-.006.384-1.398.006c-.14.004-.238.042-.294.114a.441.441 0 0 0-.084.288v.186c0 .152.036.264.108.336.072.068.188.102.348.102.112 0 .238-.02.378-.06.144-.044.288-.11.432-.198.144-.088.276-.2.396-.336v.378a1.694 1.694 0 0 1-.192.198 1.936 1.936 0 0 1-.672.39 1.435 1.435 0 0 1-.444.066c-.172 0-.324-.03-.456-.09a.746.746 0 0 1-.312-.276.882.882 0 0 1-.108-.45v-.318c0-.228.07-.404.21-.528.144-.128.344-.192.6-.192h1.494Zm2.927-1.194c.528 0 .792.268.792.804V48h-.51v-2.046c0-.196-.032-.33-.096-.402-.064-.076-.172-.114-.324-.114-.18 0-.36.044-.54.132a7.94 7.94 0 0 0-.642.36l-.024-.366c.228-.176.454-.312.678-.408.224-.1.446-.15.666-.15Zm-1.344.072.042.558.036.09V48h-.51v-2.922h.432Zm4.026-.072c.128 0 .264.004.408.012.144.008.286.018.426.03.144.012.276.028.396.048l-.042.372c-.184-.008-.37-.014-.558-.018a12.707 12.707 0 0 0-.552-.012c-.18-.004-.322 0-.426.012-.104.012-.18.044-.228.096-.044.052-.066.14-.066.264 0 .152.036.252.108.3a.98.98 0 0 0 .318.12l.852.192c.232.056.402.142.51.258.112.116.168.298.168.546 0 .24-.046.42-.138.54a.654.654 0 0 1-.408.24c-.184.04-.418.06-.702.06-.104 0-.26-.004-.468-.012a5.692 5.692 0 0 1-.678-.072l.036-.372c.096.004.198.01.306.018.108.004.22.006.336.006h.366c.22 0 .392-.01.516-.03.124-.02.212-.058.264-.114.052-.06.078-.148.078-.264 0-.144-.042-.24-.126-.288a1.246 1.246 0 0 0-.336-.12l-.84-.192a1.235 1.235 0 0 1-.384-.156.597.597 0 0 1-.21-.258 1.07 1.07 0 0 1-.066-.402c0-.228.04-.4.12-.516a.598.598 0 0 1 .372-.234 2.7 2.7 0 0 1 .648-.054Zm6.401.072-.852 2.778a.2.2 0 0 1-.072.108.222.222 0 0 1-.126.036h-.462a.225.225 0 0 1-.132-.042.2.2 0 0 1-.066-.12l-.48-1.986-.048-.228a2.705 2.705 0 0 0-.048-.234h-.072c-.016.08-.034.158-.054.234l-.048.228-.474 1.986a.232.232 0 0 1-.072.12.208.208 0 0 1-.132.042h-.456a.222.222 0 0 1-.126-.036.2.2 0 0 1-.072-.108l-.852-2.778h.528l.606 2.154a4.111 4.111 0 0 1 .096.438h.078c.02-.072.038-.144.054-.216.02-.076.038-.15.054-.222l.486-1.992a.187.187 0 0 1 .192-.162h.462c.048 0 .088.016.12.048.036.028.06.068.072.12l.48 1.986.048.216c.02.072.038.146.054.222h.078c.02-.076.036-.148.048-.216.012-.072.03-.146.054-.222l.606-2.154h.528Zm1.802-.072c.44 0 .758.08.954.24.2.16.3.398.3.714.004.26-.05.464-.162.612-.112.144-.29.216-.534.216h-1.704v-.396h1.572c.132 0 .218-.044.258-.132a.744.744 0 0 0 .06-.3c-.004-.188-.06-.322-.168-.402-.108-.08-.292-.12-.552-.12-.212 0-.38.032-.504.096a.526.526 0 0 0-.258.324c-.048.152-.072.366-.072.642 0 .312.03.55.09.714a.572.572 0 0 0 .3.336c.136.06.316.09.54.09.156 0 .326-.006.51-.018.188-.016.356-.034.504-.054l.054.342a1.82 1.82 0 0 1-.342.09 4.32 4.32 0 0 1-.414.054c-.14.012-.266.018-.378.018-.336 0-.606-.05-.81-.15a.952.952 0 0 1-.45-.492c-.092-.228-.138-.528-.138-.9 0-.384.046-.686.138-.906a.881.881 0 0 1 .438-.474c.2-.096.456-.144.768-.144Zm2.419.072.066.558.048.09V48h-.51v-2.922h.396Zm1.434-.072-.06.48h-.168c-.172 0-.344.036-.516.108a7.176 7.176 0 0 0-.63.294l-.042-.318c.216-.176.432-.314.648-.414.22-.1.432-.15.636-.15h.132Zm3.033-1.146V48h-.528v-3.282c0-.06.002-.12.006-.18s.012-.12.024-.18l-1.014.318-.072-.39 1.056-.426h.528Z" fill="#C6C6C6"/><rect x="64.5" y="39.5" width="36" height="14" rx="2.5" stroke="#fff" stroke-dasharray="2 2"/><path d="M71.848 45.006c.216 0 .398.03.546.09a.626.626 0 0 1 .342.288c.076.136.114.322.114.558V48h-.402l-.078-.636-.036-.066v-1.356c0-.18-.042-.308-.126-.384-.08-.08-.236-.12-.468-.12a8.66 8.66 0 0 0-.576.024 35.82 35.82 0 0 0-.678.054l-.048-.378a8.96 8.96 0 0 1 1.41-.132Zm.762 1.194-.006.384-1.398.006c-.14.004-.238.042-.294.114a.441.441 0 0 0-.084.288v.186c0 .152.036.264.108.336.072.068.188.102.348.102.112 0 .238-.02.378-.06.144-.044.288-.11.432-.198.144-.088.276-.2.396-.336v.378a1.694 1.694 0 0 1-.192.198 1.936 1.936 0 0 1-.672.39 1.435 1.435 0 0 1-.444.066c-.172 0-.324-.03-.456-.09a.746.746 0 0 1-.312-.276.882.882 0 0 1-.108-.45v-.318c0-.228.07-.404.21-.528.144-.128.344-.192.6-.192h1.494Zm2.927-1.194c.528 0 .792.268.792.804V48h-.51v-2.046c0-.196-.032-.33-.096-.402-.064-.076-.172-.114-.324-.114-.18 0-.36.044-.54.132a7.94 7.94 0 0 0-.642.36l-.024-.366c.228-.176.454-.312.678-.408.224-.1.446-.15.666-.15Zm-1.344.072.042.558.036.09V48h-.51v-2.922h.432Zm4.026-.072c.128 0 .264.004.408.012.144.008.286.018.426.03.144.012.276.028.396.048l-.042.372c-.184-.008-.37-.014-.558-.018a12.707 12.707 0 0 0-.552-.012c-.18-.004-.322 0-.426.012-.104.012-.18.044-.228.096-.044.052-.066.14-.066.264 0 .152.036.252.108.3a.98.98 0 0 0 .318.12l.852.192c.232.056.402.142.51.258.112.116.168.298.168.546 0 .24-.046.42-.138.54a.654.654 0 0 1-.408.24c-.184.04-.418.06-.702.06-.104 0-.26-.004-.468-.012a5.692 5.692 0 0 1-.678-.072l.036-.372c.096.004.198.01.306.018.108.004.22.006.336.006h.366c.22 0 .392-.01.516-.03.124-.02.212-.058.264-.114.052-.06.078-.148.078-.264 0-.144-.042-.24-.126-.288a1.246 1.246 0 0 0-.336-.12l-.84-.192a1.235 1.235 0 0 1-.384-.156.597.597 0 0 1-.21-.258 1.07 1.07 0 0 1-.066-.402c0-.228.04-.4.12-.516a.598.598 0 0 1 .372-.234 2.7 2.7 0 0 1 .648-.054Zm6.401.072-.852 2.778a.2.2 0 0 1-.072.108.222.222 0 0 1-.126.036h-.462a.225.225 0 0 1-.132-.042.2.2 0 0 1-.066-.12l-.48-1.986-.048-.228a2.705 2.705 0 0 0-.048-.234h-.072c-.016.08-.034.158-.054.234l-.048.228-.474 1.986a.232.232 0 0 1-.072.12.208.208 0 0 1-.132.042h-.456a.222.222 0 0 1-.126-.036.2.2 0 0 1-.072-.108l-.852-2.778h.528l.606 2.154a4.111 4.111 0 0 1 .096.438h.078c.02-.072.038-.144.054-.216.02-.076.038-.15.054-.222l.486-1.992a.187.187 0 0 1 .192-.162h.462c.048 0 .088.016.12.048.036.028.06.068.072.12l.48 1.986.048.216c.02.072.038.146.054.222h.078c.02-.076.036-.148.048-.216.012-.072.03-.146.054-.222l.606-2.154h.528Zm1.802-.072c.44 0 .758.08.954.24.2.16.3.398.3.714.004.26-.05.464-.162.612-.112.144-.29.216-.534.216h-1.704v-.396h1.572c.132 0 .218-.044.258-.132a.744.744 0 0 0 .06-.3c-.004-.188-.06-.322-.168-.402-.108-.08-.292-.12-.552-.12-.212 0-.38.032-.504.096a.526.526 0 0 0-.258.324c-.048.152-.072.366-.072.642 0 .312.03.55.09.714a.572.572 0 0 0 .3.336c.136.06.316.09.54.09.156 0 .326-.006.51-.018.188-.016.356-.034.504-.054l.054.342a1.82 1.82 0 0 1-.342.09 4.32 4.32 0 0 1-.414.054c-.14.012-.266.018-.378.018-.336 0-.606-.05-.81-.15a.952.952 0 0 1-.45-.492c-.092-.228-.138-.528-.138-.9 0-.384.046-.686.138-.906a.881.881 0 0 1 .438-.474c.2-.096.456-.144.768-.144Zm2.419.072.066.558.048.09V48h-.51v-2.922h.396Zm1.434-.072-.06.48h-.168c-.172 0-.344.036-.516.108a7.176 7.176 0 0 0-.63.294l-.042-.318c.216-.176.432-.314.648-.414.22-.1.432-.15.636-.15h.132Zm2.943-1.218c.264 0 .49.022.678.066.192.044.338.13.438.258.104.128.156.318.156.57 0 .172-.024.334-.072.486-.044.152-.12.31-.228.474a5.11 5.11 0 0 1-.438.546l-1.188 1.326a7.829 7.829 0 0 1 .672-.024h1.404V48h-2.718v-.33c0-.044.006-.084.018-.12a.288.288 0 0 1 .06-.108l1.2-1.356c.264-.284.458-.536.582-.756.124-.22.182-.428.174-.624-.004-.136-.038-.234-.102-.294a.456.456 0 0 0-.264-.126 2.365 2.365 0 0 0-.408-.03c-.128 0-.25.002-.366.006-.116.004-.24.014-.372.03a6.802 6.802 0 0 0-.45.06l-.036-.408a5.8 5.8 0 0 1 .492-.096 4.074 4.074 0 0 1 .768-.06Z" fill="#C6C6C6"/><path d="M69.61 8H43.723A1.723 1.723 0 0 0 42 9.723v16.72a1.723 1.723 0 0 0 1.723 1.724H69.61a1.724 1.724 0 0 0 1.723-1.724V9.723A1.723 1.723 0 0 0 69.61 8Zm-.11 18.333H43.833v-16.5H69.5v16.5Z" fill="#838383"/><path d="M51.918 23.39a1.53 1.53 0 0 0 1.485.12l8.956-3.997a1.548 1.548 0 0 0 0-2.841l-8.956-3.997a1.559 1.559 0 0 0-2.19 1.42v7.994a1.56 1.56 0 0 0 .705 1.302Zm.578-9.294a.266.266 0 0 1 .128-.23.274.274 0 0 1 .147 0 .246.246 0 0 1 .11 0l8.956 3.988a.265.265 0 0 1 .164.257.256.256 0 0 1-.164.247l-8.956 3.997a.257.257 0 0 1-.257 0 .285.285 0 0 1-.128-.23v-8.03Z" fill="#838383"/></svg>