<svg width="17" height="17" fill="none" xmlns="http://www.w3.org/2000/svg"><path d="M14 15.047a.78.78 0 0 1-.236.572l-1.144 1.145a.78.78 0 0 1-.573.236.78.78 0 0 1-.572-.236L9 14.29l-2.475 2.474a.78.78 0 0 1-.572.236.78.78 0 0 1-.573-.236L4.236 15.62A.78.78 0 0 1 4 15.046a.78.78 0 0 1 .236-.572L6.71 12 4.236 9.525A.78.78 0 0 1 4 8.953a.78.78 0 0 1 .236-.573L5.38 7.236A.78.78 0 0 1 5.953 7a.78.78 0 0 1 .572.236L9 9.71l2.475-2.474A.78.78 0 0 1 12.047 7a.78.78 0 0 1 .572.236l1.145 1.144a.78.78 0 0 1 .236.573.78.78 0 0 1-.236.572L11.29 12l2.474 2.475a.78.78 0 0 1 .236.572Z" fill="#fff"/></svg>